<svg width="12" height="10" viewBox="0 0 12 10" fill="none" xmlns="http://www.w3.org/2000/svg">
<path d="M10.5811 0.884073C10.301 0.603796 9.96834 0.38146 9.60224 0.229768C9.23615 0.0780762 8.84375 0 8.44748 0C8.0512 0 7.6588 0.0780762 7.29271 0.229768C6.92661 0.38146 6.59399 0.603796 6.31384 0.884073L5.73244 1.46547L5.15104 0.884073C4.58517 0.318198 3.81768 0.000293312 3.01741 0.000293318C2.21714 0.000293324 1.44965 0.318198 0.883779 0.884073C0.317905 1.44995 5.96245e-09 2.21744 0 3.0177C-5.96245e-09 3.81797 0.317905 4.58546 0.883779 5.15134L1.46518 5.73274L5.73244 10L9.99971 5.73274L10.5811 5.15134C10.8614 4.87119 11.0837 4.53857 11.2354 4.17247C11.3871 3.80638 11.4652 3.41398 11.4652 3.0177C11.4652 2.62143 11.3871 2.22903 11.2354 1.86293C11.0837 1.49684 10.8614 1.16422 10.5811 0.884073Z" fill="#8B5CF6"/>
</svg>
