<svg width="627" height="598" viewBox="0 0 627 598" fill="none" xmlns="http://www.w3.org/2000/svg">
  <g class="estrela">
    <g class="ponta">
      <path class="bg" d="M239 200L314 303L390.5 200L313 0L239 200Z" fill="#FEF3C7" />
      <g class="a">
        <path class="l3" d="M239 201.5L314 304L291 185L251.5 167L239 201.5Z" fill="#FBBF24"
          fill-opacity="0" />
        <path class="l2"
          d="M295.933 211C282.321 213.647 269.369 219.212 258 227.39L313.855 303.725L295.933 211Z"
          fill="#FBBF24" fill-opacity="0" />
        <path class="l1"
          d="M303.766 253C296.261 254.461 290.427 257.032 284 262L313.716 304.482L303.766 253Z"
          fill="#FBBF24" fill-opacity="0" />
        <path class="borda" d="M239 201.5L314 304L291 185L251.5 167L239 201.5Z" stroke="#020617"
          stroke-width="3" />
      </g>
      <g class="c">
        <path class="l3" d="M389 201.5L314 304L337 185L376.5 167L389 201.5Z" fill="#FBBF24"
          fill-opacity="0" />
        <path class="l2"
          d="M332.067 211C345.679 213.647 358.631 219.212 370 227.39L314.145 303.725L332.067 211Z"
          fill="#FBBF24" fill-opacity="0" />
        <path class="l1"
          d="M324.234 253C331.739 254.461 337.573 257.032 344 262L314.284 304.482L324.234 253Z"
          fill="#FBBF24" fill-opacity="0" />
        <path class="borda" d="M389 201.5L314 304L337 185L376.5 167L389 201.5Z" stroke="#020617"
          stroke-width="3" />
      </g>
      <g class="b">
        <path class="l3" d="M290 183.5L313 303.5L338.5 184L313.5 160L290 183.5Z" fill="#FBBF24"
          fill-opacity="0" />
        <path class="l2"
          d="M332.922 210.845C326.843 209.639 320.63 209.015 314.366 209C307.826 208.985 301.34 209.634 295 210.917L312.772 303.641L313.042 304.008L332.922 210.845Z"
          fill="#FBBF24" fill-opacity="0" />
        <path class="l1"
          d="M323.874 251.935C320.394 251.279 316.84 250.963 313.259 251.003C309.696 251.044 306.284 251.369 303 252.003L312.87 303.5L323.874 251.935Z"
          fill="#FBBF24" fill-opacity="0" />
        <path class="borda" d="M290 183.5L313 303.5L338.5 184L313.5 160L290 183.5Z" stroke="#020617"
          stroke-width="3" />
      </g>
      <path class="border" d="M239 200L314 303L390.5 200L313 0L239 200Z" stroke="#020617"
        stroke-width="3" />
    </g>
    <g class="ponta">
      <path class="bg"
        d="M389.368 200.803L314.585 303.961L436.184 344.888L602.446 209.378L389.368 200.803Z"
        fill="#FCE7F3" stroke="#020617" stroke-width="3" />
      <g class="d">
        <path class="l3"
          d="M387.941 201.267L313.634 304.27L419.703 245.623L424.616 202.494L387.941 201.267Z"
          fill="#F472B6" fill-opacity="0" />
        <path class="l2"
          d="M396.5 258.349C389.776 246.222 380.481 235.622 369.189 227.338L313.851 304.048L396.5 258.349Z"
          fill="#F472B6" fill-opacity="0" />
        <path class="l1"
          d="M358.976 278.777C355.267 272.091 351.019 267.337 344.308 262.76L313.089 304.149L358.976 278.777Z"
          fill="#F472B6" fill-opacity="0" />
        <path class="borda"
          d="M387.941 201.267L313.634 304.27L419.703 245.623L424.616 202.494L387.941 201.267Z"
          stroke="#020617" stroke-width="3" />
      </g>
      <g class="f">
        <path class="l3"
          d="M434.294 343.925L313.634 304.27L433.917 289.372L463.243 321.376L434.294 343.925Z"
          fill="#F472B6" fill-opacity="0" />
        <path class="l2"
          d="M407.666 292.714C409.354 306.478 408.065 320.516 403.799 333.856L313.94 304.324L407.666 292.714Z"
          fill="#F472B6" fill-opacity="0" />
        <path class="l1"
          d="M365.301 298.244C366.231 305.833 365.588 312.176 362.849 319.823L313.264 304.689L365.301 298.244Z"
          fill="#F472B6" fill-opacity="0" />
        <path class="borda"
          d="M434.294 343.925L313.634 304.27L433.917 289.372L463.243 321.376L434.294 343.925Z"
          stroke="#020617" stroke-width="3" />
      </g>
      <g class="e">
        <path class="l3"
          d="M420.82 244.208L313.801 303.165L435.332 290.489L450.432 259.296L420.82 244.208Z"
          fill="#F472B6" fill-opacity="0" />
        <path class="l2"
          d="M408.077 293.48C407.346 287.326 406.019 281.224 404.097 275.262C402.091 269.037 399.469 263.069 396.29 257.436L313.596 302.992L313.331 303.361L408.077 293.48Z"
          fill="#F472B6" fill-opacity="0" />
        <path class="l1"
          d="M366.203 297.572C365.751 294.06 364.953 290.582 363.808 287.189C362.669 283.813 361.305 280.668 359.687 277.741L313.761 303.041L366.203 297.572Z"
          fill="#F472B6" fill-opacity="0" />
        <path class="borda"
          d="M420.82 244.208L313.801 303.165L435.332 290.489L450.432 259.296L420.82 244.208Z"
          stroke="#020617" stroke-width="3" />
      </g>
      <path class="border"
        d="M389.368 200.803L314.585 303.961L436.184 344.888L602.446 209.378L389.368 200.803Z"
        stroke="#020617" stroke-width="3" />
    </g>
    <g class="ponta">
      <path class="bg"
        d="M435.979 346.527L314.761 307.283L313.413 435.577L493.669 551.827L435.979 346.527Z"
        fill="#CCFBF1" stroke="#020617" stroke-width="3" />
      <g class="g">
        <path class="l3"
          d="M435.097 345.314L314.173 306.474L402.727 389.227L445.263 380.572L435.097 345.314Z"
          fill="#2DD4BF" fill-opacity="0" />
        <path class="l2"
          d="M383.453 371.093C392.909 360.95 400.118 348.835 404.508 335.536L314.452 306.61L383.453 371.093Z"
          fill="#2DD4BF" fill-opacity="0" />
        <path class="l1"
          d="M352.43 341.718C357.642 336.125 360.851 330.615 363.13 322.819L314.12 305.917L352.43 341.718Z"
          fill="#2DD4BF" fill-opacity="0" />
        <path class="borda"
          d="M435.097 345.314L314.173 306.474L402.727 389.227L445.263 380.572L435.097 345.314Z"
          stroke="#020617" stroke-width="3" />
      </g>
      <g class="i">
        <path class="l3"
          d="M313.745 433.482L314.173 306.474L365.512 416.266L344.136 454.045L313.745 433.482Z"
          fill="#2DD4BF" fill-opacity="0" />
        <path class="l2"
          d="M354.221 392.331C341.652 398.191 327.903 401.302 313.898 401.368L314.217 306.781L354.221 392.331Z"
          fill="#2DD4BF" fill-opacity="0" />
        <path class="l1"
          d="M335.87 353.749C328.94 356.978 322.709 358.327 314.589 358.086L313.66 306.251L335.87 353.749Z"
          fill="#2DD4BF" fill-opacity="0" />
        <path class="borda"
          d="M313.745 433.482L314.173 306.474L365.512 416.266L344.136 454.045L313.745 433.482Z"
          stroke="#020617" stroke-width="3" />
      </g>
      <g class="h">
        <path class="l3"
          d="M404.417 389.853L315.276 306.29L364.886 417.956L399.219 422.678L404.417 389.853Z"
          fill="#2DD4BF" fill-opacity="0" />
        <path class="l2"
          d="M353.62 392.959C359.247 390.362 364.64 387.215 369.716 383.545C375.016 379.713 379.882 375.375 384.257 370.611L315.377 306.042L314.944 305.904L353.62 392.959Z"
          fill="#2DD4BF" fill-opacity="0" />
        <path class="l1"
          d="M336.788 354.399C339.989 352.885 343.05 351.051 345.923 348.913C348.782 346.786 351.351 344.517 353.635 342.074L315.381 306.214L336.788 354.399Z"
          fill="#2DD4BF" fill-opacity="0" />
        <path class="borda"
          d="M404.417 389.853L315.276 306.29L364.886 417.956L399.219 422.678L404.417 389.853Z"
          stroke="#020617" stroke-width="3" />
      </g>
      <path class="border"
        d="M435.979 346.527L314.761 307.283L313.413 435.577L493.669 551.827L435.979 346.527Z"
        stroke="#020617" stroke-width="3" />
    </g>
    <g class="ponta">
      <path class="bg"
        d="M312.123 434.577L311.989 307.164L189.557 345.527L134.699 552.884L312.123 434.577Z"
        fill="#FFEDD5" stroke="#020617" stroke-width="3" />
      <g class="j">
        <path class="l3"
          d="M313.005 433.363L312.576 306.355L261.237 416.147L282.613 453.927L313.005 433.363Z"
          fill="#FB923C" fill-opacity="0" />
        <path class="l2"
          d="M272.529 392.213C285.097 398.072 298.846 401.184 312.851 401.25L312.532 306.663L272.529 392.213Z"
          fill="#FB923C" fill-opacity="0" />
        <path class="l1"
          d="M290.879 353.631C297.809 356.86 304.04 358.209 312.16 357.967L313.089 306.133L290.879 353.631Z"
          fill="#FB923C" fill-opacity="0" />
        <path class="borda"
          d="M313.005 433.363L312.576 306.355L261.237 416.147L282.613 453.927L313.005 433.363Z"
          stroke="#020617" stroke-width="3" />
      </g>
      <g class="l">
        <path class="l3"
          d="M191.652 345.196L312.576 306.355L224.023 389.109L181.486 380.454L191.652 345.196Z"
          fill="#FB923C" fill-opacity="0" />
        <path class="l2"
          d="M243.296 370.974C233.84 360.832 226.631 348.717 222.241 335.418L312.298 306.492L243.296 370.974Z"
          fill="#FB923C" fill-opacity="0" />
        <path class="l1"
          d="M274.32 341.6C269.107 336.007 265.898 330.497 263.619 322.7L312.63 305.799L274.32 341.6Z"
          fill="#FB923C" fill-opacity="0" />
        <path class="borda"
          d="M191.652 345.196L312.576 306.355L224.023 389.109L181.486 380.454L191.652 345.196Z"
          stroke="#020617" stroke-width="3" />
      </g>
      <g class="k">
        <path class="l3"
          d="M261.165 417.949L313.091 307.347L222.221 389.036L228.34 423.148L261.165 417.949Z"
          fill="#FB923C" fill-opacity="0" />
        <path class="l2"
          d="M242.513 370.597C246.722 375.146 251.382 379.303 256.441 382.997C261.723 386.853 267.352 390.14 273.235 392.829L313.359 307.367L313.356 306.912L242.513 370.597Z"
          fill="#FB923C" fill-opacity="0" />
        <path class="l1"
          d="M273.985 342.673C276.414 345.249 279.104 347.594 282.025 349.666C284.931 351.727 287.883 353.47 290.912 354.887L313.196 307.424L273.985 342.673Z"
          fill="#FB923C" fill-opacity="0" />
        <path class="borda"
          d="M261.165 417.949L313.091 307.347L222.221 389.036L228.34 423.148L261.165 417.949Z"
          stroke="#020617" stroke-width="3" />
      </g>
      <path class="border"
        d="M312.123 434.577L311.989 307.164L189.557 345.527L134.699 552.884L312.123 434.577Z"
        stroke="#020617" stroke-width="3" />
    </g>
    <g class="ponta">
      <path class="bg"
        d="M190.211 343.888L311.346 304.388L237.027 199.803L22.8673 211.707L190.211 343.888Z"
        fill="#CFFAFE" stroke="#020617" stroke-width="3" />
      <g class="m">
        <path class="l3"
          d="M191.638 344.352L312.297 304.697L192.014 289.798L162.689 321.803L191.638 344.352Z"
          fill="#22D3EE" fill-opacity="0" />
        <path class="l2"
          d="M218.266 293.141C216.578 306.905 217.867 320.943 222.132 334.282L311.991 304.75L218.266 293.141Z"
          fill="#22D3EE" fill-opacity="0" />
        <path class="l1"
          d="M260.631 298.67C259.701 306.259 260.344 312.602 263.083 320.25L312.668 305.116L260.631 298.67Z"
          fill="#22D3EE" fill-opacity="0" />
        <path class="borda"
          d="M191.638 344.352L312.297 304.697L192.014 289.798L162.689 321.803L191.638 344.352Z"
          stroke="#020617" stroke-width="3" />
      </g>
      <g class="o">
        <path class="l3"
          d="M237.99 201.694L312.297 304.697L206.229 246.05L201.316 202.921L237.99 201.694Z"
          fill="#22D3EE" fill-opacity="0" />
        <path class="l2"
          d="M229.432 258.776C236.156 246.648 245.451 236.049 256.742 227.764L312.081 304.474L229.432 258.776Z"
          fill="#22D3EE" fill-opacity="0" />
        <path class="l1"
          d="M266.956 279.204C270.664 272.518 274.913 267.764 281.624 263.187L312.843 304.576L266.956 279.204Z"
          fill="#22D3EE" fill-opacity="0" />
        <path class="borda"
          d="M237.99 201.694L312.297 304.697L206.229 246.05L201.316 202.921L237.99 201.694Z"
          stroke="#020617" stroke-width="3" />
      </g>
      <g class="n">
        <path class="l3"
          d="M190.279 290.286L311.513 305.494L205.742 244.314L175.191 260.674L190.279 290.286Z"
          fill="#22D3EE" fill-opacity="0" />
        <path class="l2"
          d="M229.549 257.915C226.524 263.324 224.01 269.039 222.06 274.992C220.025 281.207 218.638 287.577 217.899 294.003L311.577 305.754L312.009 305.611L229.549 257.915Z"
          fill="#22D3EE" fill-opacity="0" />
        <path class="l1"
          d="M265.832 279.217C264.133 282.324 262.734 285.607 261.666 289.025C260.603 292.426 259.858 295.772 259.446 299.091L311.473 305.617L265.832 279.217Z"
          fill="#22D3EE" fill-opacity="0" />
        <path class="borda"
          d="M190.279 290.286L311.513 305.494L205.742 244.314L175.191 260.674L190.279 290.286Z"
          stroke="#020617" stroke-width="3" />
      </g>
      <path class="border"
        d="M190.211 343.888L311.346 304.388L237.027 199.803L22.8673 211.707L190.211 343.888Z"
        stroke="#020617" stroke-width="3" />
    </g>
    <g class="markers">
      <circle class="Ellipse 3" cx="314.5" cy="305.5" r="52.5" stroke="#020617" stroke-width="2"
        stroke-dasharray="4 4" />
      <circle class="Ellipse 4" cx="313" cy="304" r="95" stroke="#020617" stroke-width="2"
        stroke-dasharray="4 4" />
    </g>
    <g class="labels">
      <path class="a"
        d="M239.444 169.664C239.444 169 239.58 168.412 239.852 167.9C240.132 167.388 240.508 166.992 240.98 166.712C241.46 166.424 241.988 166.28 242.564 166.28C243.084 166.28 243.536 166.384 243.92 166.592C244.312 166.792 244.624 167.044 244.856 167.348V166.388H246.236V173H244.856V172.016C244.624 172.328 244.308 172.588 243.908 172.796C243.508 173.004 243.052 173.108 242.54 173.108C241.972 173.108 241.452 172.964 240.98 172.676C240.508 172.38 240.132 171.972 239.852 171.452C239.58 170.924 239.444 170.328 239.444 169.664ZM244.856 169.688C244.856 169.232 244.76 168.836 244.568 168.5C244.384 168.164 244.14 167.908 243.836 167.732C243.532 167.556 243.204 167.468 242.852 167.468C242.5 167.468 242.172 167.556 241.868 167.732C241.564 167.9 241.316 168.152 241.124 168.488C240.94 168.816 240.848 169.208 240.848 169.664C240.848 170.12 240.94 170.52 241.124 170.864C241.316 171.208 241.564 171.472 241.868 171.656C242.18 171.832 242.508 171.92 242.852 171.92C243.204 171.92 243.532 171.832 243.836 171.656C244.14 171.48 244.384 171.224 244.568 170.888C244.76 170.544 244.856 170.144 244.856 169.688Z"
        fill="#020617" />
      <path class="b"
        d="M312.268 149.372C312.5 149.052 312.816 148.792 313.216 148.592C313.624 148.384 314.076 148.28 314.572 148.28C315.156 148.28 315.684 148.42 316.156 148.7C316.628 148.98 317 149.38 317.272 149.9C317.544 150.412 317.68 151 317.68 151.664C317.68 152.328 317.544 152.924 317.272 153.452C317 153.972 316.624 154.38 316.144 154.676C315.672 154.964 315.148 155.108 314.572 155.108C314.06 155.108 313.604 155.008 313.204 154.808C312.812 154.608 312.5 154.352 312.268 154.04V155H310.9V146.12H312.268V149.372ZM316.288 151.664C316.288 151.208 316.192 150.816 316 150.488C315.816 150.152 315.568 149.9 315.256 149.732C314.952 149.556 314.624 149.468 314.272 149.468C313.928 149.468 313.6 149.556 313.288 149.732C312.984 149.908 312.736 150.164 312.544 150.5C312.36 150.836 312.268 151.232 312.268 151.688C312.268 152.144 312.36 152.544 312.544 152.888C312.736 153.224 312.984 153.48 313.288 153.656C313.6 153.832 313.928 153.92 314.272 153.92C314.624 153.92 314.952 153.832 315.256 153.656C315.568 153.472 315.816 153.208 316 152.864C316.192 152.52 316.288 152.12 316.288 151.664Z"
        fill="#020617" />
      <path class="Alimenta&#195;&#167;&#195;&#163;o"
        d="M286.89 123.45H283.85L283.29 125H282.33L284.85 118.07H285.9L288.41 125H287.45L286.89 123.45ZM286.63 122.71L285.37 119.19L284.11 122.71H286.63ZM290.418 117.6V125H289.508V117.6H290.418ZM292.439 118.63C292.266 118.63 292.119 118.57 291.999 118.45C291.879 118.33 291.819 118.183 291.819 118.01C291.819 117.837 291.879 117.69 291.999 117.57C292.119 117.45 292.266 117.39 292.439 117.39C292.606 117.39 292.746 117.45 292.859 117.57C292.979 117.69 293.039 117.837 293.039 118.01C293.039 118.183 292.979 118.33 292.859 118.45C292.746 118.57 292.606 118.63 292.439 118.63ZM292.879 119.52V125H291.969V119.52H292.879ZM301.02 119.42C301.447 119.42 301.827 119.51 302.16 119.69C302.493 119.863 302.757 120.127 302.95 120.48C303.143 120.833 303.24 121.263 303.24 121.77V125H302.34V121.9C302.34 121.353 302.203 120.937 301.93 120.65C301.663 120.357 301.3 120.21 300.84 120.21C300.367 120.21 299.99 120.363 299.71 120.67C299.43 120.97 299.29 121.407 299.29 121.98V125H298.39V121.9C298.39 121.353 298.253 120.937 297.98 120.65C297.713 120.357 297.35 120.21 296.89 120.21C296.417 120.21 296.04 120.363 295.76 120.67C295.48 120.97 295.34 121.407 295.34 121.98V125H294.43V119.52H295.34V120.31C295.52 120.023 295.76 119.803 296.06 119.65C296.367 119.497 296.703 119.42 297.07 119.42C297.53 119.42 297.937 119.523 298.29 119.73C298.643 119.937 298.907 120.24 299.08 120.64C299.233 120.253 299.487 119.953 299.84 119.74C300.193 119.527 300.587 119.42 301.02 119.42ZM309.733 122.05C309.733 122.223 309.723 122.407 309.703 122.6H305.323C305.356 123.14 305.54 123.563 305.873 123.87C306.213 124.17 306.623 124.32 307.103 124.32C307.496 124.32 307.823 124.23 308.083 124.05C308.35 123.863 308.536 123.617 308.643 123.31H309.623C309.476 123.837 309.183 124.267 308.743 124.6C308.303 124.927 307.756 125.09 307.103 125.09C306.583 125.09 306.116 124.973 305.703 124.74C305.296 124.507 304.976 124.177 304.743 123.75C304.51 123.317 304.393 122.817 304.393 122.25C304.393 121.683 304.506 121.187 304.733 120.76C304.96 120.333 305.276 120.007 305.683 119.78C306.096 119.547 306.57 119.43 307.103 119.43C307.623 119.43 308.083 119.543 308.483 119.77C308.883 119.997 309.19 120.31 309.403 120.71C309.623 121.103 309.733 121.55 309.733 122.05ZM308.793 121.86C308.793 121.513 308.716 121.217 308.563 120.97C308.41 120.717 308.2 120.527 307.933 120.4C307.673 120.267 307.383 120.2 307.063 120.2C306.603 120.2 306.21 120.347 305.883 120.64C305.563 120.933 305.38 121.34 305.333 121.86H308.793ZM313.604 119.42C314.271 119.42 314.811 119.623 315.224 120.03C315.637 120.43 315.844 121.01 315.844 121.77V125H314.944V121.9C314.944 121.353 314.807 120.937 314.534 120.65C314.261 120.357 313.887 120.21 313.414 120.21C312.934 120.21 312.551 120.36 312.264 120.66C311.984 120.96 311.844 121.397 311.844 121.97V125H310.934V119.52H311.844V120.3C312.024 120.02 312.267 119.803 312.574 119.65C312.887 119.497 313.231 119.42 313.604 119.42ZM318.441 120.27V123.5C318.441 123.767 318.497 123.957 318.611 124.07C318.724 124.177 318.921 124.23 319.201 124.23H319.871V125H319.051C318.544 125 318.164 124.883 317.911 124.65C317.657 124.417 317.531 124.033 317.531 123.5V120.27H316.821V119.52H317.531V118.14H318.441V119.52H319.871V120.27H318.441ZM320.633 122.24C320.633 121.68 320.746 121.19 320.973 120.77C321.2 120.343 321.51 120.013 321.903 119.78C322.303 119.547 322.746 119.43 323.233 119.43C323.713 119.43 324.13 119.533 324.483 119.74C324.836 119.947 325.1 120.207 325.273 120.52V119.52H326.193V125H325.273V123.98C325.093 124.3 324.823 124.567 324.463 124.78C324.11 124.987 323.696 125.09 323.223 125.09C322.736 125.09 322.296 124.97 321.903 124.73C321.51 124.49 321.2 124.153 320.973 123.72C320.746 123.287 320.633 122.793 320.633 122.24ZM325.273 122.25C325.273 121.837 325.19 121.477 325.023 121.17C324.856 120.863 324.63 120.63 324.343 120.47C324.063 120.303 323.753 120.22 323.413 120.22C323.073 120.22 322.763 120.3 322.483 120.46C322.203 120.62 321.98 120.853 321.813 121.16C321.646 121.467 321.563 121.827 321.563 122.24C321.563 122.66 321.646 123.027 321.813 123.34C321.98 123.647 322.203 123.883 322.483 124.05C322.763 124.21 323.073 124.29 323.413 124.29C323.753 124.29 324.063 124.21 324.343 124.05C324.63 123.883 324.856 123.647 325.023 123.34C325.19 123.027 325.273 122.663 325.273 122.25ZM330.061 124.32C330.461 124.32 330.794 124.227 331.061 124.04C331.328 123.853 331.511 123.587 331.611 123.24H332.591C332.458 123.76 332.194 124.187 331.801 124.52C331.414 124.847 330.928 125.033 330.341 125.08V125.58C330.734 125.573 331.048 125.657 331.281 125.83C331.514 126.003 331.631 126.25 331.631 126.57C331.631 126.883 331.518 127.133 331.291 127.32C331.064 127.507 330.771 127.6 330.411 127.6H329.261V127.01H330.231C330.451 127.01 330.611 126.977 330.711 126.91C330.818 126.843 330.871 126.73 330.871 126.57C330.871 126.417 330.818 126.307 330.711 126.24C330.611 126.173 330.451 126.14 330.231 126.14H329.731V125.07C329.271 125.023 328.864 124.88 328.511 124.64C328.158 124.393 327.881 124.067 327.681 123.66C327.488 123.247 327.391 122.777 327.391 122.25C327.391 121.683 327.504 121.19 327.731 120.77C327.958 120.343 328.271 120.013 328.671 119.78C329.078 119.547 329.541 119.43 330.061 119.43C330.734 119.43 331.288 119.593 331.721 119.92C332.161 120.247 332.451 120.7 332.591 121.28H331.611C331.518 120.947 331.334 120.683 331.061 120.49C330.794 120.297 330.461 120.2 330.061 120.2C329.541 120.2 329.121 120.38 328.801 120.74C328.481 121.093 328.321 121.597 328.321 122.25C328.321 122.91 328.481 123.42 328.801 123.78C329.121 124.14 329.541 124.32 330.061 124.32ZM333.465 122.24C333.465 121.68 333.578 121.19 333.805 120.77C334.032 120.343 334.342 120.013 334.735 119.78C335.135 119.547 335.578 119.43 336.065 119.43C336.545 119.43 336.962 119.533 337.315 119.74C337.668 119.947 337.932 120.207 338.105 120.52V119.52H339.025V125H338.105V123.98C337.925 124.3 337.655 124.567 337.295 124.78C336.942 124.987 336.528 125.09 336.055 125.09C335.568 125.09 335.128 124.97 334.735 124.73C334.342 124.49 334.032 124.153 333.805 123.72C333.578 123.287 333.465 122.793 333.465 122.24ZM338.105 122.25C338.105 121.837 338.022 121.477 337.855 121.17C337.688 120.863 337.462 120.63 337.175 120.47C336.895 120.303 336.585 120.22 336.245 120.22C335.905 120.22 335.595 120.3 335.315 120.46C335.035 120.62 334.812 120.853 334.645 121.16C334.478 121.467 334.395 121.827 334.395 122.24C334.395 122.66 334.478 123.027 334.645 123.34C334.812 123.647 335.035 123.883 335.315 124.05C335.595 124.21 335.905 124.29 336.245 124.29C336.585 124.29 336.895 124.21 337.175 124.05C337.462 123.883 337.688 123.647 337.855 123.34C338.022 123.027 338.105 122.663 338.105 122.25ZM334.955 118.93C335.002 118.59 335.112 118.33 335.285 118.15C335.465 117.97 335.688 117.88 335.955 117.88C336.082 117.88 336.188 117.903 336.275 117.95C336.368 117.99 336.478 118.05 336.605 118.13C336.698 118.197 336.782 118.25 336.855 118.29C336.928 118.323 337.008 118.34 337.095 118.34C337.208 118.34 337.305 118.303 337.385 118.23C337.465 118.157 337.515 118.05 337.535 117.91H338.055C338.015 118.243 337.905 118.5 337.725 118.68C337.545 118.86 337.322 118.95 337.055 118.95C336.928 118.95 336.815 118.93 336.715 118.89C336.622 118.843 336.515 118.777 336.395 118.69C336.288 118.623 336.202 118.573 336.135 118.54C336.075 118.507 336.002 118.49 335.915 118.49C335.802 118.49 335.705 118.527 335.625 118.6C335.552 118.673 335.505 118.783 335.485 118.93H334.955ZM342.953 125.09C342.44 125.09 341.973 124.973 341.553 124.74C341.14 124.507 340.813 124.177 340.573 123.75C340.34 123.317 340.223 122.817 340.223 122.25C340.223 121.69 340.343 121.197 340.583 120.77C340.83 120.337 341.163 120.007 341.583 119.78C342.003 119.547 342.473 119.43 342.993 119.43C343.513 119.43 343.983 119.547 344.403 119.78C344.823 120.007 345.153 120.333 345.393 120.76C345.64 121.187 345.763 121.683 345.763 122.25C345.763 122.817 345.636 123.317 345.383 123.75C345.136 124.177 344.8 124.507 344.373 124.74C343.946 124.973 343.473 125.09 342.953 125.09ZM342.953 124.29C343.28 124.29 343.586 124.213 343.873 124.06C344.16 123.907 344.39 123.677 344.563 123.37C344.743 123.063 344.833 122.69 344.833 122.25C344.833 121.81 344.746 121.437 344.573 121.13C344.4 120.823 344.173 120.597 343.893 120.45C343.613 120.297 343.31 120.22 342.983 120.22C342.65 120.22 342.343 120.297 342.063 120.45C341.79 120.597 341.57 120.823 341.403 121.13C341.236 121.437 341.153 121.81 341.153 122.25C341.153 122.697 341.233 123.073 341.393 123.38C341.56 123.687 341.78 123.917 342.053 124.07C342.326 124.217 342.626 124.29 342.953 124.29Z"
        fill="#020617" />
      <path class="Atividade F&#195;&#173;sica"
        d="M489.89 236.45H486.85L486.29 238H485.33L487.85 231.07H488.9L491.41 238H490.45L489.89 236.45ZM489.63 235.71L488.37 232.19L487.11 235.71H489.63ZM493.618 233.27V236.5C493.618 236.767 493.675 236.957 493.788 237.07C493.902 237.177 494.098 237.23 494.378 237.23H495.048V238H494.228C493.722 238 493.342 237.883 493.088 237.65C492.835 237.417 492.708 237.033 492.708 236.5V233.27H491.998V232.52H492.708V231.14H493.618V232.52H495.048V233.27H493.618ZM496.621 231.63C496.448 231.63 496.301 231.57 496.181 231.45C496.061 231.33 496.001 231.183 496.001 231.01C496.001 230.837 496.061 230.69 496.181 230.57C496.301 230.45 496.448 230.39 496.621 230.39C496.788 230.39 496.928 230.45 497.041 230.57C497.161 230.69 497.221 230.837 497.221 231.01C497.221 231.183 497.161 231.33 497.041 231.45C496.928 231.57 496.788 231.63 496.621 231.63ZM497.061 232.52V238H496.151V232.52H497.061ZM500.652 237.16L502.352 232.52H503.322L501.172 238H500.112L497.962 232.52H498.942L500.652 237.16ZM504.687 231.63C504.514 231.63 504.367 231.57 504.247 231.45C504.127 231.33 504.067 231.183 504.067 231.01C504.067 230.837 504.127 230.69 504.247 230.57C504.367 230.45 504.514 230.39 504.687 230.39C504.854 230.39 504.994 230.45 505.107 230.57C505.227 230.69 505.287 230.837 505.287 231.01C505.287 231.183 505.227 231.33 505.107 231.45C504.994 231.57 504.854 231.63 504.687 231.63ZM505.127 232.52V238H504.217V232.52H505.127ZM506.338 235.24C506.338 234.68 506.452 234.19 506.678 233.77C506.905 233.343 507.215 233.013 507.608 232.78C508.008 232.547 508.455 232.43 508.948 232.43C509.375 232.43 509.772 232.53 510.138 232.73C510.505 232.923 510.785 233.18 510.978 233.5V230.6H511.898V238H510.978V236.97C510.798 237.297 510.532 237.567 510.178 237.78C509.825 237.987 509.412 238.09 508.938 238.09C508.452 238.09 508.008 237.97 507.608 237.73C507.215 237.49 506.905 237.153 506.678 236.72C506.452 236.287 506.338 235.793 506.338 235.24ZM510.978 235.25C510.978 234.837 510.895 234.477 510.728 234.17C510.562 233.863 510.335 233.63 510.048 233.47C509.768 233.303 509.458 233.22 509.118 233.22C508.778 233.22 508.468 233.3 508.188 233.46C507.908 233.62 507.685 233.853 507.518 234.16C507.352 234.467 507.268 234.827 507.268 235.24C507.268 235.66 507.352 236.027 507.518 236.34C507.685 236.647 507.908 236.883 508.188 237.05C508.468 237.21 508.778 237.29 509.118 237.29C509.458 237.29 509.768 237.21 510.048 237.05C510.335 236.883 510.562 236.647 510.728 236.34C510.895 236.027 510.978 235.663 510.978 235.25ZM513.096 235.24C513.096 234.68 513.209 234.19 513.436 233.77C513.663 233.343 513.973 233.013 514.366 232.78C514.766 232.547 515.209 232.43 515.696 232.43C516.176 232.43 516.593 232.533 516.946 232.74C517.299 232.947 517.563 233.207 517.736 233.52V232.52H518.656V238H517.736V236.98C517.556 237.3 517.286 237.567 516.926 237.78C516.573 237.987 516.159 238.09 515.686 238.09C515.199 238.09 514.759 237.97 514.366 237.73C513.973 237.49 513.663 237.153 513.436 236.72C513.209 236.287 513.096 235.793 513.096 235.24ZM517.736 235.25C517.736 234.837 517.653 234.477 517.486 234.17C517.319 233.863 517.093 233.63 516.806 233.47C516.526 233.303 516.216 233.22 515.876 233.22C515.536 233.22 515.226 233.3 514.946 233.46C514.666 233.62 514.443 233.853 514.276 234.16C514.109 234.467 514.026 234.827 514.026 235.24C514.026 235.66 514.109 236.027 514.276 236.34C514.443 236.647 514.666 236.883 514.946 237.05C515.226 237.21 515.536 237.29 515.876 237.29C516.216 237.29 516.526 237.21 516.806 237.05C517.093 236.883 517.319 236.647 517.486 236.34C517.653 236.027 517.736 235.663 517.736 235.25ZM519.854 235.24C519.854 234.68 519.967 234.19 520.194 233.77C520.42 233.343 520.73 233.013 521.124 232.78C521.524 232.547 521.97 232.43 522.464 232.43C522.89 232.43 523.287 232.53 523.654 232.73C524.02 232.923 524.3 233.18 524.494 233.5V230.6H525.414V238H524.494V236.97C524.314 237.297 524.047 237.567 523.694 237.78C523.34 237.987 522.927 238.09 522.454 238.09C521.967 238.09 521.524 237.97 521.124 237.73C520.73 237.49 520.42 237.153 520.194 236.72C519.967 236.287 519.854 235.793 519.854 235.24ZM524.494 235.25C524.494 234.837 524.41 234.477 524.244 234.17C524.077 233.863 523.85 233.63 523.564 233.47C523.284 233.303 522.974 233.22 522.634 233.22C522.294 233.22 521.984 233.3 521.704 233.46C521.424 233.62 521.2 233.853 521.034 234.16C520.867 234.467 520.784 234.827 520.784 235.24C520.784 235.66 520.867 236.027 521.034 236.34C521.2 236.647 521.424 236.883 521.704 237.05C521.984 237.21 522.294 237.29 522.634 237.29C522.974 237.29 523.284 237.21 523.564 237.05C523.85 236.883 524.077 236.647 524.244 236.34C524.41 236.027 524.494 235.663 524.494 235.25ZM531.952 235.05C531.952 235.223 531.942 235.407 531.922 235.6H527.542C527.575 236.14 527.758 236.563 528.092 236.87C528.432 237.17 528.842 237.32 529.322 237.32C529.715 237.32 530.042 237.23 530.302 237.05C530.568 236.863 530.755 236.617 530.862 236.31H531.842C531.695 236.837 531.402 237.267 530.962 237.6C530.522 237.927 529.975 238.09 529.322 238.09C528.802 238.09 528.335 237.973 527.922 237.74C527.515 237.507 527.195 237.177 526.962 236.75C526.728 236.317 526.612 235.817 526.612 235.25C526.612 234.683 526.725 234.187 526.952 233.76C527.178 233.333 527.495 233.007 527.902 232.78C528.315 232.547 528.788 232.43 529.322 232.43C529.842 232.43 530.302 232.543 530.702 232.77C531.102 232.997 531.408 233.31 531.622 233.71C531.842 234.103 531.952 234.55 531.952 235.05ZM531.012 234.86C531.012 234.513 530.935 234.217 530.782 233.97C530.628 233.717 530.418 233.527 530.152 233.4C529.892 233.267 529.602 233.2 529.282 233.2C528.822 233.2 528.428 233.347 528.102 233.64C527.782 233.933 527.598 234.34 527.552 234.86H531.012ZM489.71 243.03V243.77H486.68V246.12H489.14V246.86H486.68V250H485.77V243.03H489.71ZM491.719 244.52V250H490.809V244.52H491.719ZM492.239 242.97L490.109 244.11V243.43L492.239 242.18V242.97ZM495.21 250.09C494.79 250.09 494.413 250.02 494.08 249.88C493.747 249.733 493.483 249.533 493.29 249.28C493.097 249.02 492.99 248.723 492.97 248.39H493.91C493.937 248.663 494.063 248.887 494.29 249.06C494.523 249.233 494.827 249.32 495.2 249.32C495.547 249.32 495.82 249.243 496.02 249.09C496.22 248.937 496.32 248.743 496.32 248.51C496.32 248.27 496.213 248.093 496 247.98C495.787 247.86 495.457 247.743 495.01 247.63C494.603 247.523 494.27 247.417 494.01 247.31C493.757 247.197 493.537 247.033 493.35 246.82C493.17 246.6 493.08 246.313 493.08 245.96C493.08 245.68 493.163 245.423 493.33 245.19C493.497 244.957 493.733 244.773 494.04 244.64C494.347 244.5 494.697 244.43 495.09 244.43C495.697 244.43 496.187 244.583 496.56 244.89C496.933 245.197 497.133 245.617 497.16 246.15H496.25C496.23 245.863 496.113 245.633 495.9 245.46C495.693 245.287 495.413 245.2 495.06 245.2C494.733 245.2 494.473 245.27 494.28 245.41C494.087 245.55 493.99 245.733 493.99 245.96C493.99 246.14 494.047 246.29 494.16 246.41C494.28 246.523 494.427 246.617 494.6 246.69C494.78 246.757 495.027 246.833 495.34 246.92C495.733 247.027 496.053 247.133 496.3 247.24C496.547 247.34 496.757 247.493 496.93 247.7C497.11 247.907 497.203 248.177 497.21 248.51C497.21 248.81 497.127 249.08 496.96 249.32C496.793 249.56 496.557 249.75 496.25 249.89C495.95 250.023 495.603 250.09 495.21 250.09ZM498.965 243.63C498.791 243.63 498.645 243.57 498.525 243.45C498.405 243.33 498.345 243.183 498.345 243.01C498.345 242.837 498.405 242.69 498.525 242.57C498.645 242.45 498.791 242.39 498.965 242.39C499.131 242.39 499.271 242.45 499.385 242.57C499.505 242.69 499.565 242.837 499.565 243.01C499.565 243.183 499.505 243.33 499.385 243.45C499.271 243.57 499.131 243.63 498.965 243.63ZM499.405 244.52V250H498.495V244.52H499.405ZM500.616 247.25C500.616 246.683 500.729 246.19 500.956 245.77C501.182 245.343 501.496 245.013 501.896 244.78C502.302 244.547 502.766 244.43 503.286 244.43C503.959 244.43 504.512 244.593 504.946 244.92C505.386 245.247 505.676 245.7 505.816 246.28H504.836C504.742 245.947 504.559 245.683 504.286 245.49C504.019 245.297 503.686 245.2 503.286 245.2C502.766 245.2 502.346 245.38 502.026 245.74C501.706 246.093 501.546 246.597 501.546 247.25C501.546 247.91 501.706 248.42 502.026 248.78C502.346 249.14 502.766 249.32 503.286 249.32C503.686 249.32 504.019 249.227 504.286 249.04C504.552 248.853 504.736 248.587 504.836 248.24H505.816C505.669 248.8 505.376 249.25 504.936 249.59C504.496 249.923 503.946 250.09 503.286 250.09C502.766 250.09 502.302 249.973 501.896 249.74C501.496 249.507 501.182 249.177 500.956 248.75C500.729 248.323 500.616 247.823 500.616 247.25ZM506.69 247.24C506.69 246.68 506.803 246.19 507.03 245.77C507.256 245.343 507.566 245.013 507.96 244.78C508.36 244.547 508.803 244.43 509.29 244.43C509.77 244.43 510.186 244.533 510.54 244.74C510.893 244.947 511.156 245.207 511.33 245.52V244.52H512.25V250H511.33V248.98C511.15 249.3 510.88 249.567 510.52 249.78C510.166 249.987 509.753 250.09 509.28 250.09C508.793 250.09 508.353 249.97 507.96 249.73C507.566 249.49 507.256 249.153 507.03 248.72C506.803 248.287 506.69 247.793 506.69 247.24ZM511.33 247.25C511.33 246.837 511.246 246.477 511.08 246.17C510.913 245.863 510.686 245.63 510.4 245.47C510.12 245.303 509.81 245.22 509.47 245.22C509.13 245.22 508.82 245.3 508.54 245.46C508.26 245.62 508.036 245.853 507.87 246.16C507.703 246.467 507.62 246.827 507.62 247.24C507.62 247.66 507.703 248.027 507.87 248.34C508.036 248.647 508.26 248.883 508.54 249.05C508.82 249.21 509.13 249.29 509.47 249.29C509.81 249.29 510.12 249.21 510.4 249.05C510.686 248.883 510.913 248.647 511.08 248.34C511.246 248.027 511.33 247.663 511.33 247.25Z"
        fill="#020617" />
      <path class="Comportamento Preventivo"
        d="M377.43 455.51C377.43 454.83 377.583 454.22 377.89 453.68C378.197 453.133 378.613 452.707 379.14 452.4C379.673 452.093 380.263 451.94 380.91 451.94C381.67 451.94 382.333 452.123 382.9 452.49C383.467 452.857 383.88 453.377 384.14 454.05H383.05C382.857 453.63 382.577 453.307 382.21 453.08C381.85 452.853 381.417 452.74 380.91 452.74C380.423 452.74 379.987 452.853 379.6 453.08C379.213 453.307 378.91 453.63 378.69 454.05C378.47 454.463 378.36 454.95 378.36 455.51C378.36 456.063 378.47 456.55 378.69 456.97C378.91 457.383 379.213 457.703 379.6 457.93C379.987 458.157 380.423 458.27 380.91 458.27C381.417 458.27 381.85 458.16 382.21 457.94C382.577 457.713 382.857 457.39 383.05 456.97H384.14C383.88 457.637 383.467 458.153 382.9 458.52C382.333 458.88 381.67 459.06 380.91 459.06C380.263 459.06 379.673 458.91 379.14 458.61C378.613 458.303 378.197 457.88 377.89 457.34C377.583 456.8 377.43 456.19 377.43 455.51ZM387.885 459.09C387.371 459.09 386.905 458.973 386.485 458.74C386.071 458.507 385.745 458.177 385.505 457.75C385.271 457.317 385.155 456.817 385.155 456.25C385.155 455.69 385.275 455.197 385.515 454.77C385.761 454.337 386.095 454.007 386.515 453.78C386.935 453.547 387.405 453.43 387.925 453.43C388.445 453.43 388.915 453.547 389.335 453.78C389.755 454.007 390.085 454.333 390.325 454.76C390.571 455.187 390.695 455.683 390.695 456.25C390.695 456.817 390.568 457.317 390.315 457.75C390.068 458.177 389.731 458.507 389.305 458.74C388.878 458.973 388.405 459.09 387.885 459.09ZM387.885 458.29C388.211 458.29 388.518 458.213 388.805 458.06C389.091 457.907 389.321 457.677 389.495 457.37C389.675 457.063 389.765 456.69 389.765 456.25C389.765 455.81 389.678 455.437 389.505 455.13C389.331 454.823 389.105 454.597 388.825 454.45C388.545 454.297 388.241 454.22 387.915 454.22C387.581 454.22 387.275 454.297 386.995 454.45C386.721 454.597 386.501 454.823 386.335 455.13C386.168 455.437 386.085 455.81 386.085 456.25C386.085 456.697 386.165 457.073 386.325 457.38C386.491 457.687 386.711 457.917 386.985 458.07C387.258 458.217 387.558 458.29 387.885 458.29ZM398.481 453.42C398.908 453.42 399.288 453.51 399.621 453.69C399.954 453.863 400.218 454.127 400.411 454.48C400.604 454.833 400.701 455.263 400.701 455.77V459H399.801V455.9C399.801 455.353 399.664 454.937 399.391 454.65C399.124 454.357 398.761 454.21 398.301 454.21C397.828 454.21 397.451 454.363 397.171 454.67C396.891 454.97 396.751 455.407 396.751 455.98V459H395.851V455.9C395.851 455.353 395.714 454.937 395.441 454.65C395.174 454.357 394.811 454.21 394.351 454.21C393.878 454.21 393.501 454.363 393.221 454.67C392.941 454.97 392.801 455.407 392.801 455.98V459H391.891V453.52H392.801V454.31C392.981 454.023 393.221 453.803 393.521 453.65C393.828 453.497 394.164 453.42 394.531 453.42C394.991 453.42 395.398 453.523 395.751 453.73C396.104 453.937 396.368 454.24 396.541 454.64C396.694 454.253 396.948 453.953 397.301 453.74C397.654 453.527 398.048 453.42 398.481 453.42ZM403.104 454.53C403.284 454.217 403.55 453.957 403.904 453.75C404.264 453.537 404.68 453.43 405.154 453.43C405.64 453.43 406.08 453.547 406.474 453.78C406.874 454.013 407.187 454.343 407.414 454.77C407.64 455.19 407.754 455.68 407.754 456.24C407.754 456.793 407.64 457.287 407.414 457.72C407.187 458.153 406.874 458.49 406.474 458.73C406.08 458.97 405.64 459.09 405.154 459.09C404.687 459.09 404.274 458.987 403.914 458.78C403.56 458.567 403.29 458.303 403.104 457.99V461.6H402.194V453.52H403.104V454.53ZM406.824 456.24C406.824 455.827 406.74 455.467 406.574 455.16C406.407 454.853 406.18 454.62 405.894 454.46C405.614 454.3 405.304 454.22 404.964 454.22C404.63 454.22 404.32 454.303 404.034 454.47C403.754 454.63 403.527 454.867 403.354 455.18C403.187 455.487 403.104 455.843 403.104 456.25C403.104 456.663 403.187 457.027 403.354 457.34C403.527 457.647 403.754 457.883 404.034 458.05C404.32 458.21 404.63 458.29 404.964 458.29C405.304 458.29 405.614 458.21 405.894 458.05C406.18 457.883 406.407 457.647 406.574 457.34C406.74 457.027 406.824 456.66 406.824 456.24ZM411.342 459.09C410.828 459.09 410.362 458.973 409.942 458.74C409.528 458.507 409.202 458.177 408.962 457.75C408.728 457.317 408.612 456.817 408.612 456.25C408.612 455.69 408.732 455.197 408.972 454.77C409.218 454.337 409.552 454.007 409.972 453.78C410.392 453.547 410.862 453.43 411.382 453.43C411.902 453.43 412.372 453.547 412.792 453.78C413.212 454.007 413.542 454.333 413.782 454.76C414.028 455.187 414.152 455.683 414.152 456.25C414.152 456.817 414.025 457.317 413.772 457.75C413.525 458.177 413.188 458.507 412.762 458.74C412.335 458.973 411.862 459.09 411.342 459.09ZM411.342 458.29C411.668 458.29 411.975 458.213 412.262 458.06C412.548 457.907 412.778 457.677 412.952 457.37C413.132 457.063 413.222 456.69 413.222 456.25C413.222 455.81 413.135 455.437 412.962 455.13C412.788 454.823 412.562 454.597 412.282 454.45C412.002 454.297 411.698 454.22 411.372 454.22C411.038 454.22 410.732 454.297 410.452 454.45C410.178 454.597 409.958 454.823 409.792 455.13C409.625 455.437 409.542 455.81 409.542 456.25C409.542 456.697 409.622 457.073 409.782 457.38C409.948 457.687 410.168 457.917 410.442 458.07C410.715 458.217 411.015 458.29 411.342 458.29ZM416.258 454.41C416.418 454.097 416.645 453.853 416.938 453.68C417.238 453.507 417.601 453.42 418.028 453.42V454.36H417.788C416.768 454.36 416.258 454.913 416.258 456.02V459H415.348V453.52H416.258V454.41ZM420.189 454.27V457.5C420.189 457.767 420.245 457.957 420.359 458.07C420.472 458.177 420.669 458.23 420.949 458.23H421.619V459H420.799C420.292 459 419.912 458.883 419.659 458.65C419.405 458.417 419.279 458.033 419.279 457.5V454.27H418.569V453.52H419.279V452.14H420.189V453.52H421.619V454.27H420.189ZM422.381 456.24C422.381 455.68 422.495 455.19 422.721 454.77C422.948 454.343 423.258 454.013 423.651 453.78C424.051 453.547 424.495 453.43 424.981 453.43C425.461 453.43 425.878 453.533 426.231 453.74C426.585 453.947 426.848 454.207 427.021 454.52V453.52H427.941V459H427.021V457.98C426.841 458.3 426.571 458.567 426.211 458.78C425.858 458.987 425.445 459.09 424.971 459.09C424.485 459.09 424.045 458.97 423.651 458.73C423.258 458.49 422.948 458.153 422.721 457.72C422.495 457.287 422.381 456.793 422.381 456.24ZM427.021 456.25C427.021 455.837 426.938 455.477 426.771 455.17C426.605 454.863 426.378 454.63 426.091 454.47C425.811 454.303 425.501 454.22 425.161 454.22C424.821 454.22 424.511 454.3 424.231 454.46C423.951 454.62 423.728 454.853 423.561 455.16C423.395 455.467 423.311 455.827 423.311 456.24C423.311 456.66 423.395 457.027 423.561 457.34C423.728 457.647 423.951 457.883 424.231 458.05C424.511 458.21 424.821 458.29 425.161 458.29C425.501 458.29 425.811 458.21 426.091 458.05C426.378 457.883 426.605 457.647 426.771 457.34C426.938 457.027 427.021 456.663 427.021 456.25ZM436.069 453.42C436.496 453.42 436.876 453.51 437.209 453.69C437.542 453.863 437.806 454.127 437.999 454.48C438.192 454.833 438.289 455.263 438.289 455.77V459H437.389V455.9C437.389 455.353 437.252 454.937 436.979 454.65C436.712 454.357 436.349 454.21 435.889 454.21C435.416 454.21 435.039 454.363 434.759 454.67C434.479 454.97 434.339 455.407 434.339 455.98V459H433.439V455.9C433.439 455.353 433.302 454.937 433.029 454.65C432.762 454.357 432.399 454.21 431.939 454.21C431.466 454.21 431.089 454.363 430.809 454.67C430.529 454.97 430.389 455.407 430.389 455.98V459H429.479V453.52H430.389V454.31C430.569 454.023 430.809 453.803 431.109 453.65C431.416 453.497 431.752 453.42 432.119 453.42C432.579 453.42 432.986 453.523 433.339 453.73C433.692 453.937 433.956 454.24 434.129 454.64C434.282 454.253 434.536 453.953 434.889 453.74C435.242 453.527 435.636 453.42 436.069 453.42ZM444.782 456.05C444.782 456.223 444.772 456.407 444.752 456.6H440.372C440.405 457.14 440.588 457.563 440.922 457.87C441.262 458.17 441.672 458.32 442.152 458.32C442.545 458.32 442.872 458.23 443.132 458.05C443.398 457.863 443.585 457.617 443.692 457.31H444.672C444.525 457.837 444.232 458.267 443.792 458.6C443.352 458.927 442.805 459.09 442.152 459.09C441.632 459.09 441.165 458.973 440.752 458.74C440.345 458.507 440.025 458.177 439.792 457.75C439.558 457.317 439.442 456.817 439.442 456.25C439.442 455.683 439.555 455.187 439.782 454.76C440.008 454.333 440.325 454.007 440.732 453.78C441.145 453.547 441.618 453.43 442.152 453.43C442.672 453.43 443.132 453.543 443.532 453.77C443.932 453.997 444.238 454.31 444.452 454.71C444.672 455.103 444.782 455.55 444.782 456.05ZM443.842 455.86C443.842 455.513 443.765 455.217 443.612 454.97C443.458 454.717 443.248 454.527 442.982 454.4C442.722 454.267 442.432 454.2 442.112 454.2C441.652 454.2 441.258 454.347 440.932 454.64C440.612 454.933 440.428 455.34 440.382 455.86H443.842ZM448.653 453.42C449.32 453.42 449.86 453.623 450.273 454.03C450.686 454.43 450.893 455.01 450.893 455.77V459H449.993V455.9C449.993 455.353 449.856 454.937 449.583 454.65C449.31 454.357 448.936 454.21 448.463 454.21C447.983 454.21 447.6 454.36 447.313 454.66C447.033 454.96 446.893 455.397 446.893 455.97V459H445.983V453.52H446.893V454.3C447.073 454.02 447.316 453.803 447.623 453.65C447.936 453.497 448.28 453.42 448.653 453.42ZM453.489 454.27V457.5C453.489 457.767 453.546 457.957 453.659 458.07C453.773 458.177 453.969 458.23 454.249 458.23H454.919V459H454.099C453.593 459 453.213 458.883 452.959 458.65C452.706 458.417 452.579 458.033 452.579 457.5V454.27H451.869V453.52H452.579V452.14H453.489V453.52H454.919V454.27H453.489ZM458.412 459.09C457.899 459.09 457.432 458.973 457.012 458.74C456.599 458.507 456.272 458.177 456.032 457.75C455.799 457.317 455.682 456.817 455.682 456.25C455.682 455.69 455.802 455.197 456.042 454.77C456.289 454.337 456.622 454.007 457.042 453.78C457.462 453.547 457.932 453.43 458.452 453.43C458.972 453.43 459.442 453.547 459.862 453.78C460.282 454.007 460.612 454.333 460.852 454.76C461.099 455.187 461.222 455.683 461.222 456.25C461.222 456.817 461.095 457.317 460.842 457.75C460.595 458.177 460.259 458.507 459.832 458.74C459.405 458.973 458.932 459.09 458.412 459.09ZM458.412 458.29C458.739 458.29 459.045 458.213 459.332 458.06C459.619 457.907 459.849 457.677 460.022 457.37C460.202 457.063 460.292 456.69 460.292 456.25C460.292 455.81 460.205 455.437 460.032 455.13C459.859 454.823 459.632 454.597 459.352 454.45C459.072 454.297 458.769 454.22 458.442 454.22C458.109 454.22 457.802 454.297 457.522 454.45C457.249 454.597 457.029 454.823 456.862 455.13C456.695 455.437 456.612 455.81 456.612 456.25C456.612 456.697 456.692 457.073 456.852 457.38C457.019 457.687 457.239 457.917 457.512 458.07C457.785 458.217 458.085 458.29 458.412 458.29ZM382.43 466.07C382.43 466.65 382.23 467.133 381.83 467.52C381.437 467.9 380.833 468.09 380.02 468.09H378.68V471H377.77V464.03H380.02C380.807 464.03 381.403 464.22 381.81 464.6C382.223 464.98 382.43 465.47 382.43 466.07ZM380.02 467.34C380.527 467.34 380.9 467.23 381.14 467.01C381.38 466.79 381.5 466.477 381.5 466.07C381.5 465.21 381.007 464.78 380.02 464.78H378.68V467.34H380.02ZM384.471 466.41C384.631 466.097 384.858 465.853 385.151 465.68C385.451 465.507 385.814 465.42 386.241 465.42V466.36H386.001C384.981 466.36 384.471 466.913 384.471 468.02V471H383.561V465.52H384.471V466.41ZM392.291 468.05C392.291 468.223 392.281 468.407 392.261 468.6H387.881C387.915 469.14 388.098 469.563 388.431 469.87C388.771 470.17 389.181 470.32 389.661 470.32C390.055 470.32 390.381 470.23 390.641 470.05C390.908 469.863 391.095 469.617 391.201 469.31H392.181C392.035 469.837 391.741 470.267 391.301 470.6C390.861 470.927 390.315 471.09 389.661 471.09C389.141 471.09 388.675 470.973 388.261 470.74C387.855 470.507 387.535 470.177 387.301 469.75C387.068 469.317 386.951 468.817 386.951 468.25C386.951 467.683 387.065 467.187 387.291 466.76C387.518 466.333 387.835 466.007 388.241 465.78C388.655 465.547 389.128 465.43 389.661 465.43C390.181 465.43 390.641 465.543 391.041 465.77C391.441 465.997 391.748 466.31 391.961 466.71C392.181 467.103 392.291 467.55 392.291 468.05ZM391.351 467.86C391.351 467.513 391.275 467.217 391.121 466.97C390.968 466.717 390.758 466.527 390.491 466.4C390.231 466.267 389.941 466.2 389.621 466.2C389.161 466.2 388.768 466.347 388.441 466.64C388.121 466.933 387.938 467.34 387.891 467.86H391.351ZM395.533 470.16L397.233 465.52H398.203L396.053 471H394.993L392.843 465.52H393.823L395.533 470.16ZM404.098 468.05C404.098 468.223 404.088 468.407 404.068 468.6H399.688C399.721 469.14 399.905 469.563 400.238 469.87C400.578 470.17 400.988 470.32 401.468 470.32C401.861 470.32 402.188 470.23 402.448 470.05C402.715 469.863 402.901 469.617 403.008 469.31H403.988C403.841 469.837 403.548 470.267 403.108 470.6C402.668 470.927 402.121 471.09 401.468 471.09C400.948 471.09 400.481 470.973 400.068 470.74C399.661 470.507 399.341 470.177 399.108 469.75C398.875 469.317 398.758 468.817 398.758 468.25C398.758 467.683 398.871 467.187 399.098 466.76C399.325 466.333 399.641 466.007 400.048 465.78C400.461 465.547 400.935 465.43 401.468 465.43C401.988 465.43 402.448 465.543 402.848 465.77C403.248 465.997 403.555 466.31 403.768 466.71C403.988 467.103 404.098 467.55 404.098 468.05ZM403.158 467.86C403.158 467.513 403.081 467.217 402.928 466.97C402.775 466.717 402.565 466.527 402.298 466.4C402.038 466.267 401.748 466.2 401.428 466.2C400.968 466.2 400.575 466.347 400.248 466.64C399.928 466.933 399.745 467.34 399.698 467.86H403.158ZM407.969 465.42C408.636 465.42 409.176 465.623 409.589 466.03C410.003 466.43 410.209 467.01 410.209 467.77V471H409.309V467.9C409.309 467.353 409.173 466.937 408.899 466.65C408.626 466.357 408.253 466.21 407.779 466.21C407.299 466.21 406.916 466.36 406.629 466.66C406.349 466.96 406.209 467.397 406.209 467.97V471H405.299V465.52H406.209V466.3C406.389 466.02 406.633 465.803 406.939 465.65C407.253 465.497 407.596 465.42 407.969 465.42ZM412.806 466.27V469.5C412.806 469.767 412.862 469.957 412.976 470.07C413.089 470.177 413.286 470.23 413.566 470.23H414.236V471H413.416C412.909 471 412.529 470.883 412.276 470.65C412.022 470.417 411.896 470.033 411.896 469.5V466.27H411.186V465.52H411.896V464.14H412.806V465.52H414.236V466.27H412.806ZM415.808 464.63C415.635 464.63 415.488 464.57 415.368 464.45C415.248 464.33 415.188 464.183 415.188 464.01C415.188 463.837 415.248 463.69 415.368 463.57C415.488 463.45 415.635 463.39 415.808 463.39C415.975 463.39 416.115 463.45 416.228 463.57C416.348 463.69 416.408 463.837 416.408 464.01C416.408 464.183 416.348 464.33 416.228 464.45C416.115 464.57 415.975 464.63 415.808 464.63ZM416.248 465.52V471H415.338V465.52H416.248ZM419.839 470.16L421.539 465.52H422.509L420.359 471H419.299L417.149 465.52H418.129L419.839 470.16ZM425.795 471.09C425.281 471.09 424.815 470.973 424.395 470.74C423.981 470.507 423.655 470.177 423.415 469.75C423.181 469.317 423.065 468.817 423.065 468.25C423.065 467.69 423.185 467.197 423.425 466.77C423.671 466.337 424.005 466.007 424.425 465.78C424.845 465.547 425.315 465.43 425.835 465.43C426.355 465.43 426.825 465.547 427.245 465.78C427.665 466.007 427.995 466.333 428.235 466.76C428.481 467.187 428.605 467.683 428.605 468.25C428.605 468.817 428.478 469.317 428.225 469.75C427.978 470.177 427.641 470.507 427.215 470.74C426.788 470.973 426.315 471.09 425.795 471.09ZM425.795 470.29C426.121 470.29 426.428 470.213 426.715 470.06C427.001 469.907 427.231 469.677 427.405 469.37C427.585 469.063 427.675 468.69 427.675 468.25C427.675 467.81 427.588 467.437 427.415 467.13C427.241 466.823 427.015 466.597 426.735 466.45C426.455 466.297 426.151 466.22 425.825 466.22C425.491 466.22 425.185 466.297 424.905 466.45C424.631 466.597 424.411 466.823 424.245 467.13C424.078 467.437 423.995 467.81 423.995 468.25C423.995 468.697 424.075 469.073 424.235 469.38C424.401 469.687 424.621 469.917 424.895 470.07C425.168 470.217 425.468 470.29 425.795 470.29Z"
        fill="#020617" />
      <path class="Controle do Estresse"
        d="M85.9945 232.51C85.9945 231.83 86.1478 231.22 86.4545 230.68C86.7611 230.133 87.1778 229.707 87.7045 229.4C88.2378 229.093 88.8278 228.94 89.4745 228.94C90.2345 228.94 90.8978 229.123 91.4645 229.49C92.0311 229.857 92.4445 230.377 92.7045 231.05H91.6145C91.4211 230.63 91.1411 230.307 90.7745 230.08C90.4145 229.853 89.9811 229.74 89.4745 229.74C88.9878 229.74 88.5511 229.853 88.1645 230.08C87.7778 230.307 87.4745 230.63 87.2545 231.05C87.0345 231.463 86.9245 231.95 86.9245 232.51C86.9245 233.063 87.0345 233.55 87.2545 233.97C87.4745 234.383 87.7778 234.703 88.1645 234.93C88.5511 235.157 88.9878 235.27 89.4745 235.27C89.9811 235.27 90.4145 235.16 90.7745 234.94C91.1411 234.713 91.4211 234.39 91.6145 233.97H92.7045C92.4445 234.637 92.0311 235.153 91.4645 235.52C90.8978 235.88 90.2345 236.06 89.4745 236.06C88.8278 236.06 88.2378 235.91 87.7045 235.61C87.1778 235.303 86.7611 234.88 86.4545 234.34C86.1478 233.8 85.9945 233.19 85.9945 232.51ZM96.4491 236.09C95.9357 236.09 95.4691 235.973 95.0491 235.74C94.6357 235.507 94.3091 235.177 94.0691 234.75C93.8357 234.317 93.7191 233.817 93.7191 233.25C93.7191 232.69 93.8391 232.197 94.0791 231.77C94.3257 231.337 94.6591 231.007 95.0791 230.78C95.4991 230.547 95.9691 230.43 96.4891 230.43C97.0091 230.43 97.4791 230.547 97.8991 230.78C98.3191 231.007 98.6491 231.333 98.8891 231.76C99.1357 232.187 99.2591 232.683 99.2591 233.25C99.2591 233.817 99.1324 234.317 98.8791 234.75C98.6324 235.177 98.2957 235.507 97.8691 235.74C97.4424 235.973 96.9691 236.09 96.4491 236.09ZM96.4491 235.29C96.7757 235.29 97.0824 235.213 97.3691 235.06C97.6557 234.907 97.8857 234.677 98.0591 234.37C98.2391 234.063 98.3291 233.69 98.3291 233.25C98.3291 232.81 98.2424 232.437 98.0691 232.13C97.8957 231.823 97.6691 231.597 97.3891 231.45C97.1091 231.297 96.8057 231.22 96.4791 231.22C96.1457 231.22 95.8391 231.297 95.5591 231.45C95.2857 231.597 95.0657 231.823 94.8991 232.13C94.7324 232.437 94.6491 232.81 94.6491 233.25C94.6491 233.697 94.7291 234.073 94.8891 234.38C95.0557 234.687 95.2757 234.917 95.5491 235.07C95.8224 235.217 96.1224 235.29 96.4491 235.29ZM103.126 230.42C103.792 230.42 104.332 230.623 104.746 231.03C105.159 231.43 105.366 232.01 105.366 232.77V236H104.466V232.9C104.466 232.353 104.329 231.937 104.056 231.65C103.782 231.357 103.409 231.21 102.936 231.21C102.456 231.21 102.072 231.36 101.786 231.66C101.506 231.96 101.366 232.397 101.366 232.97V236H100.456V230.52H101.366V231.3C101.546 231.02 101.789 230.803 102.096 230.65C102.409 230.497 102.752 230.42 103.126 230.42ZM107.962 231.27V234.5C107.962 234.767 108.019 234.957 108.132 235.07C108.245 235.177 108.442 235.23 108.722 235.23H109.392V236H108.572C108.065 236 107.685 235.883 107.432 235.65C107.179 235.417 107.052 235.033 107.052 234.5V231.27H106.342V230.52H107.052V229.14H107.962V230.52H109.392V231.27H107.962ZM111.405 231.41C111.565 231.097 111.791 230.853 112.085 230.68C112.385 230.507 112.748 230.42 113.175 230.42V231.36H112.935C111.915 231.36 111.405 231.913 111.405 233.02V236H110.495V230.52H111.405V231.41ZM116.615 236.09C116.102 236.09 115.635 235.973 115.215 235.74C114.802 235.507 114.475 235.177 114.235 234.75C114.002 234.317 113.885 233.817 113.885 233.25C113.885 232.69 114.005 232.197 114.245 231.77C114.492 231.337 114.825 231.007 115.245 230.78C115.665 230.547 116.135 230.43 116.655 230.43C117.175 230.43 117.645 230.547 118.065 230.78C118.485 231.007 118.815 231.333 119.055 231.76C119.302 232.187 119.425 232.683 119.425 233.25C119.425 233.817 119.298 234.317 119.045 234.75C118.798 235.177 118.462 235.507 118.035 235.74C117.608 235.973 117.135 236.09 116.615 236.09ZM116.615 235.29C116.942 235.29 117.248 235.213 117.535 235.06C117.822 234.907 118.052 234.677 118.225 234.37C118.405 234.063 118.495 233.69 118.495 233.25C118.495 232.81 118.408 232.437 118.235 232.13C118.062 231.823 117.835 231.597 117.555 231.45C117.275 231.297 116.972 231.22 116.645 231.22C116.312 231.22 116.005 231.297 115.725 231.45C115.452 231.597 115.232 231.823 115.065 232.13C114.898 232.437 114.815 232.81 114.815 233.25C114.815 233.697 114.895 234.073 115.055 234.38C115.222 234.687 115.442 234.917 115.715 235.07C115.988 235.217 116.288 235.29 116.615 235.29ZM121.532 228.6V236H120.622V228.6H121.532ZM128.083 233.05C128.083 233.223 128.073 233.407 128.053 233.6H123.673C123.706 234.14 123.889 234.563 124.223 234.87C124.563 235.17 124.973 235.32 125.453 235.32C125.846 235.32 126.173 235.23 126.433 235.05C126.699 234.863 126.886 234.617 126.993 234.31H127.973C127.826 234.837 127.533 235.267 127.093 235.6C126.653 235.927 126.106 236.09 125.453 236.09C124.933 236.09 124.466 235.973 124.053 235.74C123.646 235.507 123.326 235.177 123.093 234.75C122.859 234.317 122.743 233.817 122.743 233.25C122.743 232.683 122.856 232.187 123.083 231.76C123.309 231.333 123.626 231.007 124.033 230.78C124.446 230.547 124.919 230.43 125.453 230.43C125.973 230.43 126.433 230.543 126.833 230.77C127.233 230.997 127.539 231.31 127.753 231.71C127.973 232.103 128.083 232.55 128.083 233.05ZM127.143 232.86C127.143 232.513 127.066 232.217 126.913 231.97C126.759 231.717 126.549 231.527 126.283 231.4C126.023 231.267 125.733 231.2 125.413 231.2C124.953 231.2 124.559 231.347 124.233 231.64C123.913 231.933 123.729 232.34 123.683 232.86H127.143ZM131.61 233.24C131.61 232.68 131.723 232.19 131.95 231.77C132.176 231.343 132.486 231.013 132.88 230.78C133.28 230.547 133.726 230.43 134.22 230.43C134.646 230.43 135.043 230.53 135.41 230.73C135.776 230.923 136.056 231.18 136.25 231.5V228.6H137.17V236H136.25V234.97C136.07 235.297 135.803 235.567 135.45 235.78C135.096 235.987 134.683 236.09 134.21 236.09C133.723 236.09 133.28 235.97 132.88 235.73C132.486 235.49 132.176 235.153 131.95 234.72C131.723 234.287 131.61 233.793 131.61 233.24ZM136.25 233.25C136.25 232.837 136.166 232.477 136 232.17C135.833 231.863 135.606 231.63 135.32 231.47C135.04 231.303 134.73 231.22 134.39 231.22C134.05 231.22 133.74 231.3 133.46 231.46C133.18 231.62 132.956 231.853 132.79 232.16C132.623 232.467 132.54 232.827 132.54 233.24C132.54 233.66 132.623 234.027 132.79 234.34C132.956 234.647 133.18 234.883 133.46 235.05C133.74 235.21 134.05 235.29 134.39 235.29C134.73 235.29 135.04 235.21 135.32 235.05C135.606 234.883 135.833 234.647 136 234.34C136.166 234.027 136.25 233.663 136.25 233.25ZM141.098 236.09C140.584 236.09 140.118 235.973 139.698 235.74C139.284 235.507 138.958 235.177 138.718 234.75C138.484 234.317 138.368 233.817 138.368 233.25C138.368 232.69 138.488 232.197 138.728 231.77C138.974 231.337 139.308 231.007 139.728 230.78C140.148 230.547 140.618 230.43 141.138 230.43C141.658 230.43 142.128 230.547 142.548 230.78C142.968 231.007 143.298 231.333 143.538 231.76C143.784 232.187 143.908 232.683 143.908 233.25C143.908 233.817 143.781 234.317 143.528 234.75C143.281 235.177 142.944 235.507 142.518 235.74C142.091 235.973 141.618 236.09 141.098 236.09ZM141.098 235.29C141.424 235.29 141.731 235.213 142.018 235.06C142.304 234.907 142.534 234.677 142.708 234.37C142.888 234.063 142.978 233.69 142.978 233.25C142.978 232.81 142.891 232.437 142.718 232.13C142.544 231.823 142.318 231.597 142.038 231.45C141.758 231.297 141.454 231.22 141.128 231.22C140.794 231.22 140.488 231.297 140.208 231.45C139.934 231.597 139.714 231.823 139.548 232.13C139.381 232.437 139.298 232.81 139.298 233.25C139.298 233.697 139.378 234.073 139.538 234.38C139.704 234.687 139.924 234.917 140.198 235.07C140.471 235.217 140.771 235.29 141.098 235.29ZM108.104 241.77V244.1H110.644V244.85H108.104V247.25H110.944V248H107.194V241.02H110.944V241.77H108.104ZM114.261 248.09C113.841 248.09 113.464 248.02 113.131 247.88C112.797 247.733 112.534 247.533 112.341 247.28C112.147 247.02 112.041 246.723 112.021 246.39H112.961C112.987 246.663 113.114 246.887 113.341 247.06C113.574 247.233 113.877 247.32 114.251 247.32C114.597 247.32 114.871 247.243 115.071 247.09C115.271 246.937 115.371 246.743 115.371 246.51C115.371 246.27 115.264 246.093 115.051 245.98C114.837 245.86 114.507 245.743 114.061 245.63C113.654 245.523 113.321 245.417 113.061 245.31C112.807 245.197 112.587 245.033 112.401 244.82C112.221 244.6 112.131 244.313 112.131 243.96C112.131 243.68 112.214 243.423 112.381 243.19C112.547 242.957 112.784 242.773 113.091 242.64C113.397 242.5 113.747 242.43 114.141 242.43C114.747 242.43 115.237 242.583 115.611 242.89C115.984 243.197 116.184 243.617 116.211 244.15H115.301C115.281 243.863 115.164 243.633 114.951 243.46C114.744 243.287 114.464 243.2 114.111 243.2C113.784 243.2 113.524 243.27 113.331 243.41C113.137 243.55 113.041 243.733 113.041 243.96C113.041 244.14 113.097 244.29 113.211 244.41C113.331 244.523 113.477 244.617 113.651 244.69C113.831 244.757 114.077 244.833 114.391 244.92C114.784 245.027 115.104 245.133 115.351 245.24C115.597 245.34 115.807 245.493 115.981 245.7C116.161 245.907 116.254 246.177 116.261 246.51C116.261 246.81 116.177 247.08 116.011 247.32C115.844 247.56 115.607 247.75 115.301 247.89C115.001 248.023 114.654 248.09 114.261 248.09ZM118.655 243.27V246.5C118.655 246.767 118.712 246.957 118.825 247.07C118.939 247.177 119.135 247.23 119.415 247.23H120.085V248H119.265C118.759 248 118.379 247.883 118.125 247.65C117.872 247.417 117.745 247.033 117.745 246.5V243.27H117.035V242.52H117.745V241.14H118.655V242.52H120.085V243.27H118.655ZM122.098 243.41C122.258 243.097 122.485 242.853 122.778 242.68C123.078 242.507 123.441 242.42 123.868 242.42V243.36H123.628C122.608 243.36 122.098 243.913 122.098 245.02V248H121.188V242.52H122.098V243.41ZM129.918 245.05C129.918 245.223 129.908 245.407 129.888 245.6H125.508C125.542 246.14 125.725 246.563 126.058 246.87C126.398 247.17 126.808 247.32 127.288 247.32C127.682 247.32 128.008 247.23 128.268 247.05C128.535 246.863 128.722 246.617 128.828 246.31H129.808C129.662 246.837 129.368 247.267 128.928 247.6C128.488 247.927 127.942 248.09 127.288 248.09C126.768 248.09 126.302 247.973 125.888 247.74C125.482 247.507 125.162 247.177 124.928 246.75C124.695 246.317 124.578 245.817 124.578 245.25C124.578 244.683 124.692 244.187 124.918 243.76C125.145 243.333 125.462 243.007 125.868 242.78C126.282 242.547 126.755 242.43 127.288 242.43C127.808 242.43 128.268 242.543 128.668 242.77C129.068 242.997 129.375 243.31 129.588 243.71C129.808 244.103 129.918 244.55 129.918 245.05ZM128.978 244.86C128.978 244.513 128.902 244.217 128.748 243.97C128.595 243.717 128.385 243.527 128.118 243.4C127.858 243.267 127.568 243.2 127.248 243.2C126.788 243.2 126.395 243.347 126.068 243.64C125.748 243.933 125.565 244.34 125.518 244.86H128.978ZM133.06 248.09C132.64 248.09 132.263 248.02 131.93 247.88C131.596 247.733 131.333 247.533 131.14 247.28C130.946 247.02 130.84 246.723 130.82 246.39H131.76C131.786 246.663 131.913 246.887 132.14 247.06C132.373 247.233 132.676 247.32 133.05 247.32C133.396 247.32 133.67 247.243 133.87 247.09C134.07 246.937 134.17 246.743 134.17 246.51C134.17 246.27 134.063 246.093 133.85 245.98C133.636 245.86 133.306 245.743 132.86 245.63C132.453 245.523 132.12 245.417 131.86 245.31C131.606 245.197 131.386 245.033 131.2 244.82C131.02 244.6 130.93 244.313 130.93 243.96C130.93 243.68 131.013 243.423 131.18 243.19C131.346 242.957 131.583 242.773 131.89 242.64C132.196 242.5 132.546 242.43 132.94 242.43C133.546 242.43 134.036 242.583 134.41 242.89C134.783 243.197 134.983 243.617 135.01 244.15H134.1C134.08 243.863 133.963 243.633 133.75 243.46C133.543 243.287 133.263 243.2 132.91 243.2C132.583 243.2 132.323 243.27 132.13 243.41C131.936 243.55 131.84 243.733 131.84 243.96C131.84 244.14 131.896 244.29 132.01 244.41C132.13 244.523 132.276 244.617 132.45 244.69C132.63 244.757 132.876 244.833 133.19 244.92C133.583 245.027 133.903 245.133 134.15 245.24C134.396 245.34 134.606 245.493 134.78 245.7C134.96 245.907 135.053 246.177 135.06 246.51C135.06 246.81 134.976 247.08 134.81 247.32C134.643 247.56 134.406 247.75 134.1 247.89C133.8 248.023 133.453 248.09 133.06 248.09ZM138.284 248.09C137.864 248.09 137.488 248.02 137.154 247.88C136.821 247.733 136.558 247.533 136.364 247.28C136.171 247.02 136.064 246.723 136.044 246.39H136.984C137.011 246.663 137.138 246.887 137.364 247.06C137.598 247.233 137.901 247.32 138.274 247.32C138.621 247.32 138.894 247.243 139.094 247.09C139.294 246.937 139.394 246.743 139.394 246.51C139.394 246.27 139.288 246.093 139.074 245.98C138.861 245.86 138.531 245.743 138.084 245.63C137.678 245.523 137.344 245.417 137.084 245.31C136.831 245.197 136.611 245.033 136.424 244.82C136.244 244.6 136.154 244.313 136.154 243.96C136.154 243.68 136.238 243.423 136.404 243.19C136.571 242.957 136.808 242.773 137.114 242.64C137.421 242.5 137.771 242.43 138.164 242.43C138.771 242.43 139.261 242.583 139.634 242.89C140.008 243.197 140.208 243.617 140.234 244.15H139.324C139.304 243.863 139.188 243.633 138.974 243.46C138.768 243.287 138.488 243.2 138.134 243.2C137.808 243.2 137.548 243.27 137.354 243.41C137.161 243.55 137.064 243.733 137.064 243.96C137.064 244.14 137.121 244.29 137.234 244.41C137.354 244.523 137.501 244.617 137.674 244.69C137.854 244.757 138.101 244.833 138.414 244.92C138.808 245.027 139.128 245.133 139.374 245.24C139.621 245.34 139.831 245.493 140.004 245.7C140.184 245.907 140.278 246.177 140.284 246.51C140.284 246.81 140.201 247.08 140.034 247.32C139.868 247.56 139.631 247.75 139.324 247.89C139.024 248.023 138.678 248.09 138.284 248.09ZM146.569 245.05C146.569 245.223 146.559 245.407 146.539 245.6H142.159C142.192 246.14 142.375 246.563 142.709 246.87C143.049 247.17 143.459 247.32 143.939 247.32C144.332 247.32 144.659 247.23 144.919 247.05C145.185 246.863 145.372 246.617 145.479 246.31H146.459C146.312 246.837 146.019 247.267 145.579 247.6C145.139 247.927 144.592 248.09 143.939 248.09C143.419 248.09 142.952 247.973 142.539 247.74C142.132 247.507 141.812 247.177 141.579 246.75C141.345 246.317 141.229 245.817 141.229 245.25C141.229 244.683 141.342 244.187 141.569 243.76C141.795 243.333 142.112 243.007 142.519 242.78C142.932 242.547 143.405 242.43 143.939 242.43C144.459 242.43 144.919 242.543 145.319 242.77C145.719 242.997 146.025 243.31 146.239 243.71C146.459 244.103 146.569 244.55 146.569 245.05ZM145.629 244.86C145.629 244.513 145.552 244.217 145.399 243.97C145.245 243.717 145.035 243.527 144.769 243.4C144.509 243.267 144.219 243.2 143.899 243.2C143.439 243.2 143.045 243.347 142.719 243.64C142.399 243.933 142.215 244.34 142.169 244.86H145.629Z"
        fill="#020617" />
      <path class="Relacionamentos"
        d="M176.44 459L174.78 456.15H173.68V459H172.77V452.03H175.02C175.547 452.03 175.99 452.12 176.35 452.3C176.717 452.48 176.99 452.723 177.17 453.03C177.35 453.337 177.44 453.687 177.44 454.08C177.44 454.56 177.3 454.983 177.02 455.35C176.747 455.717 176.333 455.96 175.78 456.08L177.53 459H176.44ZM173.68 455.42H175.02C175.513 455.42 175.883 455.3 176.13 455.06C176.377 454.813 176.5 454.487 176.5 454.08C176.5 453.667 176.377 453.347 176.13 453.12C175.89 452.893 175.52 452.78 175.02 452.78H173.68V455.42ZM183.854 456.05C183.854 456.223 183.844 456.407 183.824 456.6H179.444C179.477 457.14 179.661 457.563 179.994 457.87C180.334 458.17 180.744 458.32 181.224 458.32C181.617 458.32 181.944 458.23 182.204 458.05C182.471 457.863 182.657 457.617 182.764 457.31H183.744C183.597 457.837 183.304 458.267 182.864 458.6C182.424 458.927 181.877 459.09 181.224 459.09C180.704 459.09 180.237 458.973 179.824 458.74C179.417 458.507 179.097 458.177 178.864 457.75C178.631 457.317 178.514 456.817 178.514 456.25C178.514 455.683 178.627 455.187 178.854 454.76C179.081 454.333 179.397 454.007 179.804 453.78C180.217 453.547 180.691 453.43 181.224 453.43C181.744 453.43 182.204 453.543 182.604 453.77C183.004 453.997 183.311 454.31 183.524 454.71C183.744 455.103 183.854 455.55 183.854 456.05ZM182.914 455.86C182.914 455.513 182.837 455.217 182.684 454.97C182.531 454.717 182.321 454.527 182.054 454.4C181.794 454.267 181.504 454.2 181.184 454.2C180.724 454.2 180.331 454.347 180.004 454.64C179.684 454.933 179.501 455.34 179.454 455.86H182.914ZM185.965 451.6V459H185.055V451.6H185.965ZM187.176 456.24C187.176 455.68 187.289 455.19 187.516 454.77C187.743 454.343 188.053 454.013 188.446 453.78C188.846 453.547 189.289 453.43 189.776 453.43C190.256 453.43 190.673 453.533 191.026 453.74C191.379 453.947 191.643 454.207 191.816 454.52V453.52H192.736V459H191.816V457.98C191.636 458.3 191.366 458.567 191.006 458.78C190.653 458.987 190.239 459.09 189.766 459.09C189.279 459.09 188.839 458.97 188.446 458.73C188.053 458.49 187.743 458.153 187.516 457.72C187.289 457.287 187.176 456.793 187.176 456.24ZM191.816 456.25C191.816 455.837 191.733 455.477 191.566 455.17C191.399 454.863 191.173 454.63 190.886 454.47C190.606 454.303 190.296 454.22 189.956 454.22C189.616 454.22 189.306 454.3 189.026 454.46C188.746 454.62 188.523 454.853 188.356 455.16C188.189 455.467 188.106 455.827 188.106 456.24C188.106 456.66 188.189 457.027 188.356 457.34C188.523 457.647 188.746 457.883 189.026 458.05C189.306 458.21 189.616 458.29 189.956 458.29C190.296 458.29 190.606 458.21 190.886 458.05C191.173 457.883 191.399 457.647 191.566 457.34C191.733 457.027 191.816 456.663 191.816 456.25ZM193.934 456.25C193.934 455.683 194.047 455.19 194.274 454.77C194.501 454.343 194.814 454.013 195.214 453.78C195.621 453.547 196.084 453.43 196.604 453.43C197.277 453.43 197.831 453.593 198.264 453.92C198.704 454.247 198.994 454.7 199.134 455.28H198.154C198.061 454.947 197.877 454.683 197.604 454.49C197.337 454.297 197.004 454.2 196.604 454.2C196.084 454.2 195.664 454.38 195.344 454.74C195.024 455.093 194.864 455.597 194.864 456.25C194.864 456.91 195.024 457.42 195.344 457.78C195.664 458.14 196.084 458.32 196.604 458.32C197.004 458.32 197.337 458.227 197.604 458.04C197.871 457.853 198.054 457.587 198.154 457.24H199.134C198.987 457.8 198.694 458.25 198.254 458.59C197.814 458.923 197.264 459.09 196.604 459.09C196.084 459.09 195.621 458.973 195.214 458.74C194.814 458.507 194.501 458.177 194.274 457.75C194.047 457.323 193.934 456.823 193.934 456.25ZM200.818 452.63C200.645 452.63 200.498 452.57 200.378 452.45C200.258 452.33 200.198 452.183 200.198 452.01C200.198 451.837 200.258 451.69 200.378 451.57C200.498 451.45 200.645 451.39 200.818 451.39C200.985 451.39 201.125 451.45 201.238 451.57C201.358 451.69 201.418 451.837 201.418 452.01C201.418 452.183 201.358 452.33 201.238 452.45C201.125 452.57 200.985 452.63 200.818 452.63ZM201.258 453.52V459H200.348V453.52H201.258ZM205.199 459.09C204.686 459.09 204.219 458.973 203.799 458.74C203.386 458.507 203.059 458.177 202.819 457.75C202.586 457.317 202.469 456.817 202.469 456.25C202.469 455.69 202.589 455.197 202.829 454.77C203.076 454.337 203.409 454.007 203.829 453.78C204.249 453.547 204.719 453.43 205.239 453.43C205.759 453.43 206.229 453.547 206.649 453.78C207.069 454.007 207.399 454.333 207.639 454.76C207.886 455.187 208.009 455.683 208.009 456.25C208.009 456.817 207.882 457.317 207.629 457.75C207.382 458.177 207.046 458.507 206.619 458.74C206.192 458.973 205.719 459.09 205.199 459.09ZM205.199 458.29C205.526 458.29 205.832 458.213 206.119 458.06C206.406 457.907 206.636 457.677 206.809 457.37C206.989 457.063 207.079 456.69 207.079 456.25C207.079 455.81 206.992 455.437 206.819 455.13C206.646 454.823 206.419 454.597 206.139 454.45C205.859 454.297 205.556 454.22 205.229 454.22C204.896 454.22 204.589 454.297 204.309 454.45C204.036 454.597 203.816 454.823 203.649 455.13C203.482 455.437 203.399 455.81 203.399 456.25C203.399 456.697 203.479 457.073 203.639 457.38C203.806 457.687 204.026 457.917 204.299 458.07C204.572 458.217 204.872 458.29 205.199 458.29ZM211.876 453.42C212.542 453.42 213.082 453.623 213.496 454.03C213.909 454.43 214.116 455.01 214.116 455.77V459H213.216V455.9C213.216 455.353 213.079 454.937 212.806 454.65C212.532 454.357 212.159 454.21 211.686 454.21C211.206 454.21 210.822 454.36 210.536 454.66C210.256 454.96 210.116 455.397 210.116 455.97V459H209.206V453.52H210.116V454.3C210.296 454.02 210.539 453.803 210.846 453.65C211.159 453.497 211.502 453.42 211.876 453.42ZM215.262 456.24C215.262 455.68 215.375 455.19 215.602 454.77C215.829 454.343 216.139 454.013 216.532 453.78C216.932 453.547 217.375 453.43 217.862 453.43C218.342 453.43 218.759 453.533 219.112 453.74C219.465 453.947 219.729 454.207 219.902 454.52V453.52H220.822V459H219.902V457.98C219.722 458.3 219.452 458.567 219.092 458.78C218.739 458.987 218.325 459.09 217.852 459.09C217.365 459.09 216.925 458.97 216.532 458.73C216.139 458.49 215.829 458.153 215.602 457.72C215.375 457.287 215.262 456.793 215.262 456.24ZM219.902 456.25C219.902 455.837 219.819 455.477 219.652 455.17C219.485 454.863 219.259 454.63 218.972 454.47C218.692 454.303 218.382 454.22 218.042 454.22C217.702 454.22 217.392 454.3 217.112 454.46C216.832 454.62 216.609 454.853 216.442 455.16C216.275 455.467 216.192 455.827 216.192 456.24C216.192 456.66 216.275 457.027 216.442 457.34C216.609 457.647 216.832 457.883 217.112 458.05C217.392 458.21 217.702 458.29 218.042 458.29C218.382 458.29 218.692 458.21 218.972 458.05C219.259 457.883 219.485 457.647 219.652 457.34C219.819 457.027 219.902 456.663 219.902 456.25ZM228.95 453.42C229.377 453.42 229.757 453.51 230.09 453.69C230.423 453.863 230.687 454.127 230.88 454.48C231.073 454.833 231.17 455.263 231.17 455.77V459H230.27V455.9C230.27 455.353 230.133 454.937 229.86 454.65C229.593 454.357 229.23 454.21 228.77 454.21C228.297 454.21 227.92 454.363 227.64 454.67C227.36 454.97 227.22 455.407 227.22 455.98V459H226.32V455.9C226.32 455.353 226.183 454.937 225.91 454.65C225.643 454.357 225.28 454.21 224.82 454.21C224.347 454.21 223.97 454.363 223.69 454.67C223.41 454.97 223.27 455.407 223.27 455.98V459H222.36V453.52H223.27V454.31C223.45 454.023 223.69 453.803 223.99 453.65C224.297 453.497 224.633 453.42 225 453.42C225.46 453.42 225.867 453.523 226.22 453.73C226.573 453.937 226.837 454.24 227.01 454.64C227.163 454.253 227.417 453.953 227.77 453.74C228.123 453.527 228.517 453.42 228.95 453.42ZM237.663 456.05C237.663 456.223 237.653 456.407 237.633 456.6H233.253C233.286 457.14 233.469 457.563 233.803 457.87C234.143 458.17 234.553 458.32 235.033 458.32C235.426 458.32 235.753 458.23 236.013 458.05C236.279 457.863 236.466 457.617 236.573 457.31H237.553C237.406 457.837 237.113 458.267 236.673 458.6C236.233 458.927 235.686 459.09 235.033 459.09C234.513 459.09 234.046 458.973 233.633 458.74C233.226 458.507 232.906 458.177 232.673 457.75C232.439 457.317 232.323 456.817 232.323 456.25C232.323 455.683 232.436 455.187 232.663 454.76C232.889 454.333 233.206 454.007 233.613 453.78C234.026 453.547 234.499 453.43 235.033 453.43C235.553 453.43 236.013 453.543 236.413 453.77C236.813 453.997 237.119 454.31 237.333 454.71C237.553 455.103 237.663 455.55 237.663 456.05ZM236.723 455.86C236.723 455.513 236.646 455.217 236.493 454.97C236.339 454.717 236.129 454.527 235.863 454.4C235.603 454.267 235.313 454.2 234.993 454.2C234.533 454.2 234.139 454.347 233.813 454.64C233.493 454.933 233.309 455.34 233.263 455.86H236.723ZM241.534 453.42C242.2 453.42 242.74 453.623 243.154 454.03C243.567 454.43 243.774 455.01 243.774 455.77V459H242.874V455.9C242.874 455.353 242.737 454.937 242.464 454.65C242.19 454.357 241.817 454.21 241.344 454.21C240.864 454.21 240.48 454.36 240.194 454.66C239.914 454.96 239.774 455.397 239.774 455.97V459H238.864V453.52H239.774V454.3C239.954 454.02 240.197 453.803 240.504 453.65C240.817 453.497 241.16 453.42 241.534 453.42ZM246.37 454.27V457.5C246.37 457.767 246.427 457.957 246.54 458.07C246.654 458.177 246.85 458.23 247.13 458.23H247.8V459H246.98C246.474 459 246.094 458.883 245.84 458.65C245.587 458.417 245.46 458.033 245.46 457.5V454.27H244.75V453.52H245.46V452.14H246.37V453.52H247.8V454.27H246.37ZM251.293 459.09C250.779 459.09 250.313 458.973 249.893 458.74C249.479 458.507 249.153 458.177 248.913 457.75C248.679 457.317 248.563 456.817 248.563 456.25C248.563 455.69 248.683 455.197 248.923 454.77C249.169 454.337 249.503 454.007 249.923 453.78C250.343 453.547 250.813 453.43 251.333 453.43C251.853 453.43 252.323 453.547 252.743 453.78C253.163 454.007 253.493 454.333 253.733 454.76C253.979 455.187 254.103 455.683 254.103 456.25C254.103 456.817 253.976 457.317 253.723 457.75C253.476 458.177 253.139 458.507 252.713 458.74C252.286 458.973 251.813 459.09 251.293 459.09ZM251.293 458.29C251.619 458.29 251.926 458.213 252.213 458.06C252.499 457.907 252.729 457.677 252.903 457.37C253.083 457.063 253.173 456.69 253.173 456.25C253.173 455.81 253.086 455.437 252.913 455.13C252.739 454.823 252.513 454.597 252.233 454.45C251.953 454.297 251.649 454.22 251.323 454.22C250.989 454.22 250.683 454.297 250.403 454.45C250.129 454.597 249.909 454.823 249.743 455.13C249.576 455.437 249.493 455.81 249.493 456.25C249.493 456.697 249.573 457.073 249.733 457.38C249.899 457.687 250.119 457.917 250.393 458.07C250.666 458.217 250.966 458.29 251.293 458.29ZM257.239 459.09C256.819 459.09 256.443 459.02 256.109 458.88C255.776 458.733 255.513 458.533 255.319 458.28C255.126 458.02 255.019 457.723 254.999 457.39H255.939C255.966 457.663 256.093 457.887 256.319 458.06C256.553 458.233 256.856 458.32 257.229 458.32C257.576 458.32 257.849 458.243 258.049 458.09C258.249 457.937 258.349 457.743 258.349 457.51C258.349 457.27 258.243 457.093 258.029 456.98C257.816 456.86 257.486 456.743 257.039 456.63C256.633 456.523 256.299 456.417 256.039 456.31C255.786 456.197 255.566 456.033 255.379 455.82C255.199 455.6 255.109 455.313 255.109 454.96C255.109 454.68 255.193 454.423 255.359 454.19C255.526 453.957 255.763 453.773 256.069 453.64C256.376 453.5 256.726 453.43 257.119 453.43C257.726 453.43 258.216 453.583 258.589 453.89C258.963 454.197 259.163 454.617 259.189 455.15H258.279C258.259 454.863 258.143 454.633 257.929 454.46C257.723 454.287 257.443 454.2 257.089 454.2C256.763 454.2 256.503 454.27 256.309 454.41C256.116 454.55 256.019 454.733 256.019 454.96C256.019 455.14 256.076 455.29 256.189 455.41C256.309 455.523 256.456 455.617 256.629 455.69C256.809 455.757 257.056 455.833 257.369 455.92C257.763 456.027 258.083 456.133 258.329 456.24C258.576 456.34 258.786 456.493 258.959 456.7C259.139 456.907 259.233 457.177 259.239 457.51C259.239 457.81 259.156 458.08 258.989 458.32C258.823 458.56 258.586 458.75 258.279 458.89C257.979 459.023 257.633 459.09 257.239 459.09Z"
        fill="#020617" />
      <path class="c"
        d="M382.444 169.688C382.444 169.008 382.58 168.412 382.852 167.9C383.132 167.38 383.516 166.98 384.004 166.7C384.492 166.42 385.052 166.28 385.684 166.28C386.484 166.28 387.144 166.472 387.664 166.856C388.192 167.232 388.548 167.772 388.732 168.476H387.256C387.136 168.148 386.944 167.892 386.68 167.708C386.416 167.524 386.084 167.432 385.684 167.432C385.124 167.432 384.676 167.632 384.34 168.032C384.012 168.424 383.848 168.976 383.848 169.688C383.848 170.4 384.012 170.956 384.34 171.356C384.676 171.756 385.124 171.956 385.684 171.956C386.476 171.956 387 171.608 387.256 170.912H388.732C388.54 171.584 388.18 172.12 387.652 172.52C387.124 172.912 386.468 173.108 385.684 173.108C385.052 173.108 384.492 172.968 384.004 172.688C383.516 172.4 383.132 172 382.852 171.488C382.58 170.968 382.444 170.368 382.444 169.688Z"
        fill="#020617" />
      <path class="d"
        d="M419.444 191.664C419.444 191 419.58 190.412 419.852 189.9C420.132 189.388 420.508 188.992 420.98 188.712C421.46 188.424 421.992 188.28 422.576 188.28C423.008 188.28 423.432 188.376 423.848 188.568C424.272 188.752 424.608 189 424.856 189.312V186.12H426.236V195H424.856V194.004C424.632 194.324 424.32 194.588 423.92 194.796C423.528 195.004 423.076 195.108 422.564 195.108C421.988 195.108 421.46 194.964 420.98 194.676C420.508 194.38 420.132 193.972 419.852 193.452C419.58 192.924 419.444 192.328 419.444 191.664ZM424.856 191.688C424.856 191.232 424.76 190.836 424.568 190.5C424.384 190.164 424.14 189.908 423.836 189.732C423.532 189.556 423.204 189.468 422.852 189.468C422.5 189.468 422.172 189.556 421.868 189.732C421.564 189.9 421.316 190.152 421.124 190.488C420.94 190.816 420.848 191.208 420.848 191.664C420.848 192.12 420.94 192.52 421.124 192.864C421.316 193.208 421.564 193.472 421.868 193.656C422.18 193.832 422.508 193.92 422.852 193.92C423.204 193.92 423.532 193.832 423.836 193.656C424.14 193.48 424.384 193.224 424.568 192.888C424.76 192.544 424.856 192.144 424.856 191.688Z"
        fill="#020617" />
      <path class="e"
        d="M460.96 257.532C460.96 257.78 460.944 258.004 460.912 258.204H455.86C455.9 258.732 456.096 259.156 456.448 259.476C456.8 259.796 457.232 259.956 457.744 259.956C458.48 259.956 459 259.648 459.304 259.032H460.78C460.58 259.64 460.216 260.14 459.688 260.532C459.168 260.916 458.52 261.108 457.744 261.108C457.112 261.108 456.544 260.968 456.04 260.688C455.544 260.4 455.152 260 454.864 259.488C454.584 258.968 454.444 258.368 454.444 257.688C454.444 257.008 454.58 256.412 454.852 255.9C455.132 255.38 455.52 254.98 456.016 254.7C456.52 254.42 457.096 254.28 457.744 254.28C458.368 254.28 458.924 254.416 459.412 254.688C459.9 254.96 460.28 255.344 460.552 255.84C460.824 256.328 460.96 256.892 460.96 257.532ZM459.532 257.1C459.524 256.596 459.344 256.192 458.992 255.888C458.64 255.584 458.204 255.432 457.684 255.432C457.212 255.432 456.808 255.584 456.472 255.888C456.136 256.184 455.936 256.588 455.872 257.1H459.532Z"
        fill="#020617" />
      <path class="f"
        d="M465.672 329.504H464.448V335H463.068V329.504H462.288V328.388H463.068V327.92C463.068 327.16 463.268 326.608 463.668 326.264C464.076 325.912 464.712 325.736 465.576 325.736V326.876C465.16 326.876 464.868 326.956 464.7 327.116C464.532 327.268 464.448 327.536 464.448 327.92V328.388H465.672V329.504Z"
        fill="#020617" />
      <path class="g"
        d="M450.564 373.28C451.076 373.28 451.528 373.384 451.92 373.592C452.32 373.792 452.632 374.044 452.856 374.348V373.388H454.236V380.108C454.236 380.716 454.108 381.256 453.852 381.728C453.596 382.208 453.224 382.584 452.736 382.856C452.256 383.128 451.68 383.264 451.008 383.264C450.112 383.264 449.368 383.052 448.776 382.628C448.184 382.212 447.848 381.644 447.768 380.924H449.124C449.228 381.268 449.448 381.544 449.784 381.752C450.128 381.968 450.536 382.076 451.008 382.076C451.56 382.076 452.004 381.908 452.34 381.572C452.684 381.236 452.856 380.748 452.856 380.108V379.004C452.624 379.316 452.308 379.58 451.908 379.796C451.516 380.004 451.068 380.108 450.564 380.108C449.988 380.108 449.46 379.964 448.98 379.676C448.508 379.38 448.132 378.972 447.852 378.452C447.58 377.924 447.444 377.328 447.444 376.664C447.444 376 447.58 375.412 447.852 374.9C448.132 374.388 448.508 373.992 448.98 373.712C449.46 373.424 449.988 373.28 450.564 373.28ZM452.856 376.688C452.856 376.232 452.76 375.836 452.568 375.5C452.384 375.164 452.14 374.908 451.836 374.732C451.532 374.556 451.204 374.468 450.852 374.468C450.5 374.468 450.172 374.556 449.868 374.732C449.564 374.9 449.316 375.152 449.124 375.488C448.94 375.816 448.848 376.208 448.848 376.664C448.848 377.12 448.94 377.52 449.124 377.864C449.316 378.208 449.564 378.472 449.868 378.656C450.18 378.832 450.508 378.92 450.852 378.92C451.204 378.92 451.532 378.832 451.836 378.656C452.14 378.48 452.384 378.224 452.568 377.888C452.76 377.544 452.856 377.144 452.856 376.688Z"
        fill="#020617" />
      <path class="h"
        d="M405.32 425.28C405.824 425.28 406.272 425.388 406.664 425.604C407.064 425.82 407.376 426.14 407.6 426.564C407.832 426.988 407.948 427.5 407.948 428.1V432H406.592V428.304C406.592 427.712 406.444 427.26 406.148 426.948C405.852 426.628 405.448 426.468 404.936 426.468C404.424 426.468 404.016 426.628 403.712 426.948C403.416 427.26 403.268 427.712 403.268 428.304V432H401.9V423.12H403.268V426.156C403.5 425.876 403.792 425.66 404.144 425.508C404.504 425.356 404.896 425.28 405.32 425.28Z"
        fill="#020617" />
      <path class="i"
        d="M341.596 460.512C341.348 460.512 341.14 460.428 340.972 460.26C340.804 460.092 340.72 459.884 340.72 459.636C340.72 459.388 340.804 459.18 340.972 459.012C341.14 458.844 341.348 458.76 341.596 458.76C341.836 458.76 342.04 458.844 342.208 459.012C342.376 459.18 342.46 459.388 342.46 459.636C342.46 459.884 342.376 460.092 342.208 460.26C342.04 460.428 341.836 460.512 341.596 460.512ZM342.268 461.388V468H340.9V461.388H342.268Z"
        fill="#020617" />
      <path class="j"
        d="M285.596 460.512C285.348 460.512 285.14 460.428 284.972 460.26C284.804 460.092 284.72 459.884 284.72 459.636C284.72 459.388 284.804 459.18 284.972 459.012C285.14 458.844 285.348 458.76 285.596 458.76C285.836 458.76 286.04 458.844 286.208 459.012C286.376 459.18 286.46 459.388 286.46 459.636C286.46 459.884 286.376 460.092 286.208 460.26C286.04 460.428 285.836 460.512 285.596 460.512ZM286.268 469.296C286.268 469.944 286.104 470.412 285.776 470.7C285.456 470.996 284.988 471.144 284.372 471.144H283.664V469.992H284.132C284.412 469.992 284.608 469.936 284.72 469.824C284.84 469.72 284.9 469.544 284.9 469.296V461.388H286.268V469.296Z"
        fill="#020617" />
      <path class="k"
        d="M222.516 428.7L225.564 432H223.716L221.268 429.156V432H219.9V423.12H221.268V428.28L223.668 425.388H225.564L222.516 428.7Z"
        fill="#020617" />
      <path class="l" d="M176.268 371.12V380H174.9V371.12H176.268Z" fill="#020617" />
      <path class="m"
        d="M161.904 325.28C162.424 325.28 162.888 325.388 163.296 325.604C163.712 325.82 164.036 326.14 164.268 326.564C164.508 326.988 164.628 327.5 164.628 328.1V332H163.272V328.304C163.272 327.712 163.124 327.26 162.828 326.948C162.532 326.628 162.128 326.468 161.616 326.468C161.104 326.468 160.696 326.628 160.392 326.948C160.096 327.26 159.948 327.712 159.948 328.304V332H158.592V328.304C158.592 327.712 158.444 327.26 158.148 326.948C157.852 326.628 157.448 326.468 156.936 326.468C156.424 326.468 156.016 326.628 155.712 326.948C155.416 327.26 155.268 327.712 155.268 328.304V332H153.9V325.388H155.268V326.144C155.492 325.872 155.776 325.66 156.12 325.508C156.464 325.356 156.832 325.28 157.224 325.28C157.752 325.28 158.224 325.392 158.64 325.616C159.056 325.84 159.376 326.164 159.6 326.588C159.8 326.188 160.112 325.872 160.536 325.64C160.96 325.4 161.416 325.28 161.904 325.28Z"
        fill="#020617" />
      <path class="n"
        d="M167.236 254.28C167.756 254.28 168.22 254.388 168.628 254.604C169.044 254.82 169.368 255.14 169.6 255.564C169.832 255.988 169.948 256.5 169.948 257.1V261H168.592V257.304C168.592 256.712 168.444 256.26 168.148 255.948C167.852 255.628 167.448 255.468 166.936 255.468C166.424 255.468 166.016 255.628 165.712 255.948C165.416 256.26 165.268 256.712 165.268 257.304V261H163.9V254.388H165.268V255.144C165.492 254.872 165.776 254.66 166.12 254.508C166.472 254.356 166.844 254.28 167.236 254.28Z"
        fill="#020617" />
      <path class="o"
        d="M202.768 195.108C202.144 195.108 201.58 194.968 201.076 194.688C200.572 194.4 200.176 194 199.888 193.488C199.6 192.968 199.456 192.368 199.456 191.688C199.456 191.016 199.604 190.42 199.9 189.9C200.196 189.38 200.6 188.98 201.112 188.7C201.624 188.42 202.196 188.28 202.828 188.28C203.46 188.28 204.032 188.42 204.544 188.7C205.056 188.98 205.46 189.38 205.756 189.9C206.052 190.42 206.2 191.016 206.2 191.688C206.2 192.36 206.048 192.956 205.744 193.476C205.44 193.996 205.024 194.4 204.496 194.688C203.976 194.968 203.4 195.108 202.768 195.108ZM202.768 193.92C203.12 193.92 203.448 193.836 203.752 193.668C204.064 193.5 204.316 193.248 204.508 192.912C204.7 192.576 204.796 192.168 204.796 191.688C204.796 191.208 204.704 190.804 204.52 190.476C204.336 190.14 204.092 189.888 203.788 189.72C203.484 189.552 203.156 189.468 202.804 189.468C202.452 189.468 202.124 189.552 201.82 189.72C201.524 189.888 201.288 190.14 201.112 190.476C200.936 190.804 200.848 191.208 200.848 191.688C200.848 192.4 201.028 192.952 201.388 193.344C201.756 193.728 202.216 193.92 202.768 193.92Z"
        fill="#020617" />
    </g>
  </g>
</svg>